<?xml version="1.0" encoding="UTF-8" standalone="no"?>
<svg
   xmlns:slic3r="http://slic3r.org/namespaces/slic3r"
   xmlns:dc="http://purl.org/dc/elements/1.1/"
   xmlns:cc="http://creativecommons.org/ns#"
   xmlns:rdf="http://www.w3.org/1999/02/22-rdf-syntax-ns#"
   xmlns:svg="http://www.w3.org/2000/svg"
   xmlns="http://www.w3.org/2000/svg"
   xmlns:sodipodi="http://sodipodi.sourceforge.net/DTD/sodipodi-0.dtd"
   xmlns:inkscape="http://www.inkscape.org/namespaces/inkscape"
   width="79.100006mm"
   height="46.599998mm"
   viewBox="0 0 79.100006 46.599998"
   id="svg4983"
   version="1.1"
   inkscape:version="0.91 r13725"
   sodipodi:docname="soldering_iron_box_front_panel.post.svg">
  <metadata
     id="metadata5000">
    <rdf:RDF>
      <cc:Work
         rdf:about="">
        <dc:format>image/svg+xml</dc:format>
        <dc:type
           rdf:resource="http://purl.org/dc/dcmitype/StillImage" />
        <dc:title></dc:title>
      </cc:Work>
    </rdf:RDF>
  </metadata>
  <defs
     id="defs4998" />
  <sodipodi:namedview
     pagecolor="#ffffff"
     bordercolor="#666666"
     borderopacity="1"
     objecttolerance="10"
     gridtolerance="10"
     guidetolerance="10"
     inkscape:pageopacity="0"
     inkscape:pageshadow="2"
     inkscape:window-width="1331"
     inkscape:window-height="863"
     id="namedview4996"
     showgrid="false"
     inkscape:document-units="mm"
     inkscape:zoom="4.2529565"
     inkscape:cx="45.065684"
     inkscape:cy="82.559052"
     inkscape:window-x="285"
     inkscape:window-y="91"
     inkscape:window-maximized="0"
     inkscape:current-layer="svg4983" />
  <!-- 
  Generated using Slic3r 1.2.9
  http://slic3r.org/
   -->
  <g
     id="layer4"
     slic3r:z="1.4e-06"
     style="fill:none;stroke:#000000;stroke-opacity:1;stroke-width:0.025;stroke-miterlimit:4;stroke-dasharray:none;stroke-linejoin:round">
    <polygon
       slic3r:type="contour"
       points="79.100008,46.6 0,46.6 0,0 79.100008,0"
       style="fill:none;stroke:#000000;stroke-opacity:1;stroke-width:0.025;stroke-miterlimit:4;stroke-dasharray:none;stroke-linejoin:round"
       id="polygon4986" />
    <polygon
       slic3r:type="hole"
       points="12.156006,27.803 12.003002,27.82231 11.969002,27.8266 11.819275,27.86489 11.786002,27.8734 11.642818,27.930182 11.611,27.9428 11.476005,28.01701 11.446007,28.033499 11.321642,28.124072 11.294006,28.144199 11.181914,28.249745 11.157005,28.273199 11.135005,28.299581 11.036003,28.418299 11.017822,28.447227 10.936005,28.5774 10.921276,28.608382 10.855003,28.7478 10.844458,28.780381 10.797004,28.927 10.79064,28.960636 10.762001,29.111999 10.75,29.3 10.752181,29.334181 10.762001,29.488 10.768364,29.521635 10.797004,29.672999 10.807549,29.705581 10.855002,29.852199 10.869731,29.883182 10.936005,30.0226 10.954185,30.051525 11.036003,30.181698 11.058002,30.208079 11.157005,30.3268 11.269096,30.432345 11.294005,30.455799 11.41837,30.546372 11.446006,30.566499 11.581001,30.64071 11.610999,30.657199 11.754183,30.713981 11.786003,30.7266 11.935729,30.76489 11.969002,30.7734 12.122005,30.79271 12.156005,30.797 12.344002,30.797 12.497005,30.777689 12.531005,30.7734 12.680732,30.735109 12.714005,30.726599 12.857182,30.669818 12.888999,30.6572 13.024,30.58299 13.054,30.5665 13.178364,30.475928 13.206001,30.455799 13.318092,30.350254 13.343001,30.3268 13.365003,30.300417 13.464004,30.1817 13.482185,30.152772 13.564002,30.0226 13.57873,29.991617 13.645004,29.8522 13.655549,29.819617 13.703003,29.672999 13.709366,29.639364 13.738007,29.488 13.740187,29.453818 13.75,29.299999 13.747818,29.265817 13.738006,29.111999 13.731642,29.078363 13.703003,28.927 13.692458,28.894418 13.645004,28.7478 13.630276,28.716817 13.564003,28.5774 13.545822,28.548472 13.464005,28.4183 13.442003,28.391917 13.343002,28.2732 13.230909,28.167653 13.206001,28.1442 13.081636,28.053627 13.054,28.033499 12.918999,27.959289 12.888999,27.9428 12.745821,27.886017 12.714005,27.8734 12.564278,27.835109 12.531005,27.8266 12.378002,27.807289 12.344002,27.803"
       style="fill:none;stroke:#ff0000;stroke-opacity:1;stroke-width:0.025;stroke-miterlimit:4;stroke-dasharray:none;stroke-linejoin:round"
       id="polygon4988" />
    <polygon
       slic3r:type="hole"
       points="67.173008,17.3118 66.519388,17.394487 66.426011,17.4063 65.787252,17.570275 65.696,17.593699 65.082636,17.836337 64.995012,17.871 64.417507,18.188624 64.335008,18.234 63.801256,18.621537 63.725008,18.6769 63.244635,19.128224 63.176011,19.1927 63.116012,19.265275 62.695999,19.7733 62.6455,19.852823 62.292007,20.4095 62.251884,20.494723 61.971008,21.091299 61.942008,21.180875 61.738999,21.8079 61.721247,21.900412 61.597,22.547999 61.591124,22.641999 61.550004,23.3 61.555879,23.393999 61.597,24.052 61.614752,24.144512 61.739,24.792099 61.768,24.881676 61.971008,25.5087 62.011131,25.593923 62.292007,26.190499 62.342507,26.270023 62.696,26.8267 62.755999,26.899275 63.176011,27.407299 63.656384,27.858624 63.725008,27.9231 64.258759,28.310637 64.335007,28.365999 64.912512,28.683624 64.995011,28.728999 65.608376,28.971638 65.696,29.0063 66.334759,29.170275 66.426012,29.1937 67.079631,29.276387 67.173008,29.2882 67.926999,29.2882 68.580615,29.205512 68.673992,29.193699 69.312751,29.029724 69.404008,29.006299 70.017367,28.763662 70.104991,28.729 70.682496,28.411375 70.765,28.365999 71.298751,27.978462 71.375,27.923099 71.855367,27.471776 71.923992,27.407299 71.983991,27.334724 72.404008,26.826699 72.454504,26.747175 72.808,26.190499 72.848127,26.105276 73.129,25.5087 73.157999,25.419124 73.361008,24.7921 73.37876,24.699587 73.503008,24.052 73.50888,23.957999 73.55,23.3 73.544127,23.205999 73.503007,22.547999 73.485255,22.455487 73.361008,21.8079 73.332007,21.718323 73.129,21.091299 73.088871,21.006075 72.808,20.4095 72.757503,20.329975 72.404007,19.773299 72.344008,19.700724 71.923991,19.192699 71.443624,18.741376 71.375,18.676899 70.841248,18.289362 70.765,18.234 70.187495,17.916375 70.104992,17.871 69.491632,17.628362 69.404007,17.593699 68.765248,17.429724 68.673991,17.4063 68.020376,17.323612 67.926999,17.3118"
       style="fill:none;stroke:#000000;stroke-opacity:1;stroke-width:0.025;stroke-miterlimit:4;stroke-dasharray:none;stroke-linejoin:round"
       id="polygon4990" />
    <polygon
       slic3r:type="hole"
       points="12.030005,19.8069 11.604858,19.860627 11.594001,19.862 11.221248,19.957638 11.167999,19.971299 10.811002,20.112875 10.760002,20.133099 10.423124,20.318424 10.375,20.344899 10.063504,20.570911 10.019004,20.6032 9.739004,20.866488 9.699004,20.9041 9.663879,20.946437 9.417998,21.2428 9.388625,21.289187 9.183006,21.613899 9.15963,21.663611 8.996001,22.0116 8.979002,22.063849 8.860001,22.429599 8.849751,22.483561 8.778,22.861299 8.7745,22.916137 8.75,23.299999 8.753499,23.354837 8.777999,23.738699 8.788249,23.792661 8.86,24.170399 8.877,24.222649 8.996001,24.588399 9.019377,24.638111 9.183006,24.9861 9.212379,25.032487 9.417999,25.3572 9.46809,25.417576 9.699005,25.6959 9.979004,25.959187 10.019005,25.9968 10.3305,26.222811 10.375,26.2551 10.711877,26.440424 10.760001,26.466899 11.116999,26.608476 11.167999,26.6287 11.540752,26.724338 11.594002,26.738 11.975505,26.786211 12.030006,26.7931 12.470001,26.7931 12.895148,26.739372 12.906006,26.737999 13.278752,26.642361 13.332001,26.6287 13.689003,26.487124 13.740005,26.466899 14.076875,26.281576 14.125,26.255099 14.436502,26.029088 14.481003,25.996799 14.761003,25.733511 14.801002,25.6959 14.836128,25.653561 15.082001,25.357199 15.111375,25.310812 15.317001,24.9861 15.340375,24.936388 15.504005,24.588399 15.521003,24.53615 15.639999,24.1704 15.650249,24.116437 15.722,23.7387 15.725499,23.683862 15.75,23.3 15.746499,23.245161 15.722,22.8613 15.711749,22.807337 15.639999,22.4296 15.622999,22.377349 15.504005,22.0116 15.480629,21.961887 15.317,21.613899 15.287625,21.567511 15.082001,21.2428 15.046875,21.200461 14.801002,20.904099 14.521003,20.640812 14.481002,20.603199 14.169499,20.377187 14.124999,20.344899 13.788129,20.159576 13.740004,20.133099 13.383002,19.991524 13.332001,19.9713 12.959254,19.875661 12.906005,19.862 12.524502,19.813788 12.47,19.8069"
       style="fill:none;stroke:#000000;stroke-opacity:1;stroke-width:0.025;stroke-miterlimit:4;stroke-dasharray:none;stroke-linejoin:round"
       id="polygon4992" />
    <polygon
       slic3r:type="hole"
       points="55.449995,14.4132 55.275,14.435162 55.25,14.438299 55.080247,14.48205 55.056,14.488299 54.892379,14.55305 54.869004,14.562299 54.715008,14.646999 54.693008,14.659099 54.550376,14.762437 54.529999,14.7772 54.402251,14.897513 54.384003,14.9147 54.368004,14.934049 54.255995,15.0695 54.242496,15.090711 54.148012,15.2392 54.061996,15.421 54.054247,15.444888 54,15.612099 53.995375,15.636775 53.962996,15.809499 53.961371,15.834562 53.949996,16.01 53.951619,16.035062 53.962996,16.2105 53.96762,16.235176 53.999999,16.407899 54.007747,16.431787 54.061996,16.599001 54.072747,16.621725 54.148011,16.7808 54.161511,16.802011 54.255996,16.9505 54.271995,16.969849 54.384004,17.1053 54.511752,17.225612 54.53,17.2428 54.672631,17.346137 54.693008,17.3609 54.847004,17.4456 54.869003,17.457699 55.032624,17.52245 55.055999,17.531699 55.225752,17.57545 55.249999,17.5817 55.424996,17.603662 55.449995,17.6068 55.650007,17.6068 55.825008,17.584837 55.850007,17.5817 56.01976,17.537949 56.044007,17.5317 56.207628,17.466949 56.231003,17.4577 56.384995,17.373 56.406996,17.360899 56.549631,17.257562 56.570008,17.242799 56.697755,17.122488 56.716004,17.105299 56.732003,17.08595 56.844008,16.950499 56.857507,16.929288 56.951996,16.780799 56.962748,16.758074 57.038008,16.599001 57.045759,16.575113 57.100008,16.407899 57.104632,16.383224 57.137008,16.2105 57.138631,16.185438 57.150008,16.01 57.148383,15.984937 57.137008,15.8095 57.132384,15.784825 57.100008,15.6121 57.092255,15.588211 57.038008,15.421 57.027256,15.398275 56.951996,15.239198 56.938495,15.217986 56.844008,15.0695 56.828008,15.05015 56.716003,14.914699 56.588256,14.794387 56.570007,14.777199 56.392906,14.648892 56.39132,14.650477 56.253003,14.574399 56.231004,14.5623 56.067383,14.497549 56.044008,14.4883 55.874255,14.444549 55.850008,14.4383 55.675008,14.416337 55.650007,14.4132"
       style="fill:none;stroke:#000000;stroke-opacity:1;stroke-width:0.025;stroke-miterlimit:4;stroke-dasharray:none;stroke-linejoin:round"
       id="polygon4994" />
  </g>
</svg>
