<svg width="79.100006mm" height="46.599998mm" viewBox="0 0 79.100006 46.599998"><ns0:g xmlns:ns0="http://www.w3.org/2000/svg" xmlns:slic3r="http://slic3r.org/namespaces/slic3r" id="layer3" slic3r:z="1.1e-06">
    <ns0:polygon slic3r:type="contour" points="79.100008,46.6 0,46.6 0,0 79.100008,0" style="fill: white"/>
    <ns0:polygon slic3r:type="hole" points="12.156006,27.803 12.054004,27.815871 11.969001,27.8266 11.869183,27.852128 11.786003,27.8734 11.659042,27.923747 11.610999,27.9428 11.521003,27.992272 11.446007,28.033499 11.363097,28.093881 11.294005,28.1442 11.219278,28.214563 11.157005,28.273199 11.102003,28.339154 11.036002,28.4183 10.990548,28.490618 10.936005,28.577399 10.899185,28.654854 10.855002,28.7478 10.828639,28.829254 10.797005,28.926999 10.78878,28.970467 10.762001,29.111999 10.759528,29.150732 10.75,29.299999 10.755455,29.385454 10.762001,29.487999 10.777911,29.572089 10.797005,29.673 10.823367,29.754453 10.855002,29.852199 10.891822,29.929654 10.936004,30.022599 10.981458,30.094917 11.036002,30.181697 11.091003,30.247653 11.157005,30.3268 11.231732,30.397163 11.294005,30.455799 11.376915,30.516181 11.446007,30.5665 11.536003,30.615972 11.611,30.6572 11.706455,30.695053 11.786003,30.7266 11.885821,30.752128 11.969001,30.773399 12.071003,30.786271 12.156006,30.797 12.344001,30.797 12.446003,30.784128 12.531006,30.7734 12.630824,30.747871 12.714005,30.7266 12.809456,30.688746 12.889,30.657199 12.979,30.607728 13.054001,30.566499 13.136909,30.506118 13.206001,30.455799 13.280728,30.385436 13.343001,30.3268 13.383041,30.278787 13.464004,30.1817 13.509459,30.109381 13.564002,30.0226 13.600822,29.945145 13.645004,29.852199 13.671366,29.770746 13.703002,29.673 13.711227,29.629532 13.738007,29.488 13.743457,29.402546 13.749999,29.299999 13.744548,29.214545 13.738007,29.112 13.722095,29.027909 13.703003,28.927 13.676639,28.845545 13.645004,28.7478 13.608184,28.670345 13.564003,28.5774 13.518548,28.505081 13.464005,28.4183 13.409003,28.352345 13.343002,28.2732 13.268273,28.202835 13.206,28.144199 13.043815,28.026081 13.043815,28.027901 12.964,27.984028 12.888999,27.942799 12.793548,27.904946 12.714005,27.8734 12.614186,27.847871 12.531006,27.8266 12.429004,27.813728 12.344001,27.803" style="fill: black"/>
    <ns0:polygon slic3r:type="hole" points="67.173008,17.3118 66.659448,17.376767 66.426012,17.4063 65.924127,17.535138 65.695999,17.5937 65.214072,17.784343 64.995012,17.870999 64.615207,18.079891 64.335008,18.233999 63.994849,18.480976 63.725008,18.676899 63.347571,19.031512 63.176012,19.192699 63.026008,19.374137 62.695999,19.7733 62.569751,19.972112 62.292007,20.4095 62.191696,20.622561 61.971007,21.0913 61.898504,21.315237 61.738999,21.8079 61.694623,22.039182 61.597,22.547999 61.582311,22.783 61.550004,23.299999 61.564692,23.535 61.596999,24.052 61.641375,24.283281 61.739,24.7921 61.811503,25.016037 61.971008,25.5087 62.084806,25.750406 62.292008,26.1905 62.418255,26.389311 62.696,26.8267 62.846003,27.008137 63.176011,27.407299 63.553447,27.761911 63.725007,27.923099 64.144384,28.227594 64.335007,28.365999 64.78876,28.615562 64.995012,28.729 65.476939,28.919643 65.695999,29.006299 66.197883,29.135137 66.426012,29.1937 66.939571,29.258667 67.173008,29.2882 67.926999,29.2882 68.44056,29.223231 68.673991,29.1937 69.175879,29.064862 69.404008,29.006299 69.885936,28.815655 70.104991,28.729 70.558744,28.479437 70.764999,28.366 71.105158,28.119023 71.374999,27.9231 71.717181,27.601607 71.923991,27.4073 72.074,27.225861 72.404008,26.826699 72.530256,26.627887 72.808,26.190499 72.908311,25.977438 73.129,25.508699 73.201503,25.284762 73.361008,24.792099 73.405384,24.560817 73.503008,24.052 73.517695,23.817 73.55,23.299999 73.535312,23.065 73.503008,22.547999 73.458631,22.316717 73.361007,21.807899 73.288504,21.583962 73.128999,21.091299 73.015201,20.849593 72.807999,20.409499 72.681751,20.210687 72.404008,19.7733 72.253999,19.591861 71.923992,19.1927 71.546559,18.838087 71.375,18.6769 70.955623,18.372405 70.765,18.234 70.3371,17.998656 70.104992,17.871 69.623063,17.680355 69.404008,17.5937 68.90212,17.464862 68.673992,17.4063 68.160431,17.341331 67.927,17.3118" style="fill: black"/>
    <ns0:polygon slic3r:type="hole" points="12.030006,19.8069 11.730252,19.844782 11.594002,19.861999 11.301124,19.937144 11.167999,19.9713 10.8875,20.082538 10.760002,20.133099 10.495313,20.278711 10.374999,20.3449 10.130252,20.522482 10.019005,20.603199 9.799004,20.810068 9.699005,20.904099 9.61119,21.009944 9.417999,21.242799 9.344563,21.358768 9.183006,21.613899 9.124566,21.738182 8.996002,22.011599 8.953501,22.142224 8.86,22.4296 8.834376,22.564505 8.778,22.861299 8.76925,22.998393 8.75,23.299999 8.758749,23.437093 8.778,23.7387 8.803624,23.873605 8.86,24.170399 8.9025,24.301023 8.996001,24.588399 9.020993,24.641548 9.183005,24.986099 9.25644,25.102067 9.417998,25.357199 9.437978,25.381282 9.699004,25.695899 9.919004,25.902767 10.019005,25.9968 10.263751,26.174381 10.374999,26.255099 10.639689,26.400712 10.760002,26.4669 11.0405,26.578138 11.167998,26.628699 11.460876,26.703844 11.594001,26.737999 11.850111,26.770366 12.030005,26.7931 12.47,26.7931 12.769754,26.755217 12.906005,26.738 13.198878,26.662855 13.332001,26.6287 13.612503,26.517462 13.740005,26.466899 14.004688,26.321288 14.125,26.2551 14.369752,26.077517 14.481002,25.9968 14.701003,25.789931 14.801003,25.695899 14.888815,25.590055 15.082,25.3572 15.155437,25.241232 15.317,24.9861 15.37544,24.861817 15.504005,24.5884 15.56776,24.392437 15.639999,24.170399 15.665623,24.035494 15.722,23.7387 15.730749,23.601606 15.75,23.3 15.741249,23.162905 15.722,22.861299 15.696374,22.726393 15.639999,22.4296 15.5975,22.298975 15.504005,22.0116 15.479013,21.958451 15.317001,21.6139 15.243563,21.497931 15.082,21.242799 14.994188,21.136955 14.801003,20.9041 14.581002,20.697231 14.481003,20.6032 14.23625,20.425617 14.125,20.3449 13.860316,20.199288 13.740004,20.133099 13.459502,20.021862 13.332,19.971299 13.039128,19.896155 12.906006,19.862 12.649896,19.829633 12.470001,19.8069" style="fill: black"/>
    <ns0:polygon slic3r:type="hole" points="55.449996,14.4132 55.312499,14.430456 55.25,14.4383 55.116624,14.472674 55.055999,14.4883 54.92744,14.539174 54.869003,14.5623 54.748008,14.628849 54.693008,14.659099 54.58094,14.740293 54.529999,14.7772 54.429627,14.871731 54.384004,14.914699 54.343999,14.963075 54.255995,15.0695 54.222252,15.12253 54.148012,15.2392 54.121131,15.296012 54.061996,15.420999 54.042624,15.480718 54,15.612099 53.988435,15.673788 53.962996,15.8095 53.958932,15.872155 53.949996,16.01 53.954059,16.072656 53.962996,16.210501 53.974559,16.272187 54,16.4079 54.019371,16.467618 54.061996,16.599001 54.088875,16.655812 54.148011,16.780799 54.181756,16.833832 54.255995,16.950499 54.295999,16.998875 54.384004,17.1053 54.484376,17.199832 54.529999,17.242799 54.642068,17.323994 54.693008,17.3609 54.814004,17.42745 54.869004,17.4577 54.997563,17.508573 55.056,17.5317 55.189375,17.566075 55.25,17.581699 55.387496,17.598956 55.449996,17.6068 55.650008,17.6068 55.787507,17.589544 55.850008,17.5817 55.983383,17.547324 56.044008,17.531699 56.172567,17.480826 56.231004,17.457699 56.352,17.391149 56.406995,17.3609 56.519068,17.279705 56.570008,17.242799 56.67038,17.148267 56.716004,17.1053 56.756003,17.056924 56.844008,16.9505 56.877756,16.897467 56.951995,16.7808 56.978876,16.723987 57.038007,16.599001 57.057383,16.539282 57.100008,16.407899 57.111572,16.346212 57.137007,16.210501 57.141071,16.147844 57.150008,16.009999 57.145944,15.947344 57.137008,15.8095 57.125443,15.747811 57.100008,15.6121 57.080632,15.552381 57.038008,15.421 57.011128,15.364187 56.951995,15.239198 56.918247,15.186167 56.844008,15.0695 56.804008,15.021125 56.716004,14.9147 56.615631,14.820168 56.570008,14.7772 56.457935,14.696005 56.406996,14.6591 56.286,14.59255 56.231004,14.5623 56.102444,14.511425 56.044007,14.488299 55.910632,14.453925 55.850007,14.438299 55.712508,14.421044 55.650008,14.4132" style="fill: black"/>
  </ns0:g>
  </svg>