<svg width="78.899993mm" height="46.400001mm" viewBox="0 0 78.899993 46.400001"><ns0:g xmlns:ns0="http://www.w3.org/2000/svg" xmlns:slic3r="http://slic3r.org/namespaces/slic3r" id="layer0" slic3r:z="1.75e-07">
    <ns0:polygon slic3r:type="contour" points="78.899992,46.4 0,46.4 0,0 78.899992,0" style="fill: white"/>
    <ns0:polygon slic3r:type="hole" points="9.588188,23.940219 7.5,26.028395 19.430259,37.958751 20.934998,39.4635 23.023183,37.375324 40.026992,20.371598 38.55754,18.902134 26.592001,6.9365" style="fill: black"/>
    <ns0:polygon slic3r:type="hole" points="9.648669,35.793568 9.474998,35.799003 9.453997,35.80234 9.282997,35.8295 9.262543,35.83544 9.096001,35.883795 9.076532,35.892251 8.917998,35.961096 8.875078,35.986416 8.749999,36.060204 8.733156,36.073251 8.596,36.179496 8.473984,36.302047 8.459,36.317099 8.352122,36.454079 8.338997,36.470899 8.250825,36.620164 8.239997,36.638496 8.171423,36.797563 8.163002,36.8171 8.114906,36.983556 8.109001,37.003995 8.081392,37.175264 8.078003,37.196295 8.072654,37.369528 8.071998,37.3908 8.088027,37.563407 8.089996,37.584604 8.114509,37.692899 8.133002,37.774595 8.191779,37.937676 8.198996,37.957703 8.277376,38.112139 8.287002,38.131104 8.38497,38.274491 8.397003,38.292099 8.511002,38.422136 8.525001,38.438104 8.540969,38.452191 8.670998,38.566903 8.688607,38.578867 8.832,38.6763 8.851032,38.685968 9.005996,38.764699 9.026013,38.771908 9.189002,38.830596 9.209783,38.835243 9.378997,38.873099 9.400217,38.875104 9.572997,38.891404 9.594217,38.890735 9.766997,38.8853 9.787998,38.881963 9.958999,38.854796 9.979453,38.848856 10.146003,38.8005 10.165581,38.792043 10.324997,38.723196 10.343371,38.712356 10.492995,38.6241 10.509731,38.611051 10.646003,38.5048 10.768903,38.382252 10.783997,38.367203 10.889983,38.230224 10.903,38.213399 10.99117,38.064132 11.001998,38.0458 11.07147,37.886735 11.080002,37.867203 11.128097,37.700739 11.134002,37.680296 11.160719,37.509032 11.164001,37.487999 11.170233,37.314687 11.170998,37.293404 11.154077,37.120887 11.151999,37.099699 11.114595,36.93048 11.110001,36.909699 11.051218,36.746628 11.043999,36.7266 10.964735,36.572075 10.955001,36.553099 10.857922,36.409703 10.846001,36.392096 10.731111,36.262067 10.717003,36.2461 10.701033,36.232023 10.570999,36.1174 10.55339,36.105436 10.410003,36.008003 10.391082,35.998336 10.236999,35.9196 10.216983,35.912391 10.054001,35.8537 10.033219,35.849052 9.863998,35.811204 9.842778,35.809199 9.669997,35.792899" style="fill: black"/>
    <ns0:polygon slic3r:type="hole" points="47.699996,8.199997 47.699996,38.199996 68.899992,38.199996 68.899992,8.199997" style="fill: black"/>
    <ns0:polygon slic3r:type="hole" points="37.932776,7.509265 37.759995,7.514702 37.738888,7.518036 37.566999,7.545196 37.546656,7.551135 37.380996,7.599502 37.361416,7.607956 37.201995,7.676803 37.18362,7.687641 37.033995,7.775902 37.017259,7.78895 36.880995,7.895202 36.758087,8.017749 36.742996,8.032798 36.637007,8.169777 36.623991,8.186599 36.53582,8.33587 36.524992,8.354201 36.455535,8.513265 36.447008,8.532798 36.398912,8.69926 36.393003,8.719704 36.365392,8.890969 36.362,8.912002 36.35666,9.085313 36.356004,9.106598 36.372923,9.279114 36.375,9.300301 36.412412,9.469522 36.417008,9.490303 36.475783,9.653374 36.482999,9.6734 36.561376,9.827924 36.570999,9.8469 36.668968,9.990287 36.681,10.007896 36.795888,10.137931 36.809996,10.153899 36.825964,10.167977 36.955991,10.282599 36.973604,10.294565 37.117004,10.391998 37.135923,10.401666 37.289992,10.4804 37.310008,10.487608 37.473007,10.546302 37.493788,10.550951 37.662995,10.588798 37.738802,10.59595 37.856996,10.6071 37.878216,10.606432 38.050996,10.600998 38.072107,10.597663 38.244004,10.570503 38.264455,10.564563 38.431,10.516197 38.450467,10.507743 38.608992,10.438904 38.627367,10.428064 38.776992,10.339798 38.793835,10.326749 38.931,10.220496 38.945984,10.205446 39.067992,10.0829 39.174875,9.945922 39.188004,9.929099 39.276175,9.779918 39.287004,9.761596 39.355579,9.602446 39.363999,9.582901 39.412092,9.416445 39.418,9.396004 39.445611,9.224731 39.449004,9.203697 39.454344,9.030473 39.455,9.009201 39.438963,8.836595 39.436996,8.815399 39.398699,8.646177 39.393996,8.625397 39.33522,8.462325 39.328004,8.442299 39.249627,8.287862 39.240004,8.268898 39.142036,8.125511 39.130004,8.107902 39.016,7.977868 39.001999,7.961898 38.986032,7.947811 38.856004,7.833099 38.838396,7.821134 38.695007,7.7237 38.675976,7.714032 38.520995,7.635299 38.50098,7.628091 38.337995,7.569397 38.317215,7.564748 38.147995,7.526901 38.126776,7.524899 37.953996,7.508598" style="fill: black"/>
  </ns0:g>
  </svg>