<svg width="78.899993mm" height="46.400001mm" viewBox="0 0 78.899993 46.400001"><ns0:g xmlns:ns0="http://www.w3.org/2000/svg" xmlns:slic3r="http://slic3r.org/namespaces/slic3r" id="layer4" slic3r:z="1.4e-06">
    <ns0:polygon slic3r:type="contour" points="78.899992,46.4 0,46.4 0,0 78.899992,0" style="fill: white"/>
    <ns0:polygon slic3r:type="hole" points="24.205499,9.322986 7.499999,26.028396 9.179373,27.707783 20.934998,39.4635 37.640491,22.758084 40.026992,20.371598 28.271375,8.615886 26.592002,6.9365" style="fill: black"/>
    <ns0:polygon slic3r:type="hole" points="9.499373,35.798239 9.474997,35.799004 9.306996,35.825688 9.282997,35.8295 9.119376,35.877007 9.096,35.883796 8.940248,35.951432 8.917999,35.961096 8.770999,36.047816 8.749999,36.060204 8.615251,36.164583 8.596,36.179496 8.578876,36.196695 8.459,36.317099 8.444,36.336323 8.338996,36.4709 8.326621,36.491848 8.239998,36.638495 8.230373,36.660819 8.163002,36.8171 8.156252,36.840463 8.109001,37.003995 8.105125,37.028032 8.078003,37.196296 8.077252,37.220607 8.071998,37.390799 8.074247,37.415023 8.089996,37.584604 8.095371,37.608351 8.133003,37.774596 8.141251,37.797483 8.198997,37.957704 8.223861,38.006696 8.287002,38.131104 8.300751,38.151227 8.397002,38.292099 8.413003,38.310352 8.525002,38.438104 8.652747,38.550803 8.670998,38.566904 8.811876,38.662624 8.832001,38.6763 8.984248,38.753648 9.005996,38.764699 9.166126,38.822359 9.189003,38.830596 9.355249,38.867788 9.378998,38.8731 9.572997,38.891403 9.742748,38.886063 9.766997,38.8853 9.934999,38.858608 9.958999,38.854796 10.122627,38.807288 10.146004,38.8005 10.302623,38.732859 10.324997,38.723195 10.471995,38.636488 10.492995,38.6241 10.626878,38.519711 10.646003,38.5048 10.663253,38.487599 10.783997,38.367204 10.798872,38.347979 10.902999,38.2134 10.915375,38.192447 11.001998,38.0458 11.011748,38.023476 11.080001,37.867204 11.086751,37.84384 11.134003,37.680295 11.137753,37.656259 11.164001,37.488 11.164876,37.463675 11.170998,37.293403 11.168622,37.269191 11.152,37.099699 11.146749,37.075951 11.110001,36.9097 11.10175,36.886811 11.043999,36.7266 11.032873,36.704911 10.955001,36.553099 10.941377,36.532976 10.846,36.392095 10.829876,36.373848 10.717002,36.246099 10.58925,36.133488 10.570998,36.1174 10.430127,36.021679 10.410003,36.008003 10.258625,35.930651 10.236999,35.919599 10.076876,35.861936 10.054001,35.8537 9.887748,35.816516 9.863998,35.811204 9.669998,35.7929" style="fill: black"/>
    <ns0:polygon slic3r:type="hole" points="47.699996,8.199997 47.699996,38.199996 68.899992,38.199996 68.899992,8.199997" style="fill: black"/>
    <ns0:polygon slic3r:type="hole" points="37.784248,7.513938 37.759996,7.514702 37.591123,7.541384 37.567,7.545196 37.404247,7.592714 37.380995,7.599502 37.224371,7.667141 37.201996,7.676802 37.054995,7.763514 37.033996,7.775901 36.900119,7.88029 36.880996,7.895201 36.863743,7.912402 36.742996,8.032798 36.72812,8.052023 36.623991,8.186599 36.611616,8.207549 36.524991,8.354202 36.515244,8.376526 36.447007,8.532799 36.440256,8.556161 36.393003,8.719704 36.389128,8.74374 36.362,8.912003 36.361252,8.936326 36.356004,9.106597 36.35838,9.130811 36.375,9.300301 36.380251,9.32405 36.417008,9.490303 36.425255,9.513189 36.483,9.673401 36.493999,9.695087 36.571,9.846901 36.584751,9.867024 36.681,10.007896 36.697123,10.026145 36.809996,10.1539 36.937743,10.266511 36.955992,10.2826 37.096875,10.378322 37.117003,10.391997 37.268368,10.46935 37.289991,10.480399 37.450132,10.538065 37.473007,10.546303 37.639247,10.583486 37.662996,10.588799 37.832743,10.604812 37.856996,10.607101 38.075074,10.60024 38.075074,10.597193 38.21988,10.574314 38.244004,10.570502 38.407623,10.522985 38.431,10.516196 38.586743,10.448566 38.608992,10.438903 38.755991,10.352186 38.776992,10.339797 38.911747,10.23541 38.931,10.220497 39.050868,10.100099 39.067991,10.082901 39.082992,10.063675 39.188004,9.929099 39.20038,9.908161 39.287004,9.761596 39.296628,9.739259 39.363999,9.5829 39.370752,9.559538 39.417999,9.396004 39.421875,9.371966 39.449004,9.203696 39.449752,9.179384 39.455,9.009201 39.452747,8.984975 39.436996,8.815398 39.431619,8.791648 39.393996,8.625397 39.385748,8.60251 39.328003,8.442298 39.317003,8.420623 39.240003,8.268897 39.226256,8.248773 39.130003,8.107901 39.114004,8.089652 39.001999,7.961898 38.874251,7.849198 38.856003,7.833098 38.715131,7.737375 38.695008,7.723701 38.542747,7.646349 38.520995,7.635298 38.360872,7.577635 38.337996,7.569397 38.171743,7.532212 38.147996,7.526901 37.978247,7.510885 37.953995,7.508598" style="fill: black"/>
  </ns0:g>
</svg>