<svg width="78.899993mm" height="46.400001mm" viewBox="0 0 78.899993 46.400001"><ns0:g xmlns:ns0="http://www.w3.org/2000/svg" xmlns:slic3r="http://slic3r.org/namespaces/slic3r" id="layer3" slic3r:z="1.1e-06">
    <ns0:polygon slic3r:type="contour" points="78.899992,46.4 0,46.4 0,0 78.899992,0" style="fill: white"/>
    <ns0:polygon slic3r:type="hole" points="20.625752,12.902716 7.5,26.028396 11.698436,30.226865 20.934998,39.4635 34.060744,26.337817 40.026992,20.371598 30.790435,11.134967 26.592002,6.9365" style="fill: black"/>
    <ns0:polygon slic3r:type="hole" points="9.535935,35.797096 9.474998,35.799003 9.342996,35.819968 9.282996,35.8295 9.154437,35.866827 9.096001,35.883795 8.973625,35.936939 8.917998,35.961096 8.8025,36.029231 8.75,36.060203 8.644126,36.142215 8.596,36.179496 8.553188,36.222495 8.458999,36.3171 8.421499,36.365163 8.338996,36.4709 8.30806,36.523271 8.239997,36.638496 8.215936,36.694308 8.163002,36.8171 8.146125,36.875504 8.109001,37.003995 8.099313,37.064088 8.078003,37.196296 8.076125,37.25708 8.071998,37.3908 8.077622,37.451363 8.089995,37.584603 8.103435,37.643975 8.133003,37.774596 8.153626,37.831816 8.198996,37.957703 8.226498,38.011891 8.287002,38.131104 8.321377,38.181416 8.397003,38.292099 8.437003,38.337728 8.525001,38.438103 8.625373,38.526655 8.670998,38.566904 8.781688,38.642112 8.832001,38.6763 8.951623,38.737076 9.005996,38.764699 9.131814,38.810004 9.189002,38.830596 9.319624,38.859815 9.378998,38.8731 9.572997,38.891404 9.706373,38.887207 9.766998,38.885299 9.898998,38.864328 9.959,38.854796 10.087564,38.817468 10.146003,38.8005 10.269062,38.747351 10.324996,38.723196 10.440496,38.655067 10.492995,38.6241 10.598189,38.542079 10.646003,38.5048 10.689126,38.4618 10.783996,38.367204 10.821184,38.31914 10.902999,38.2134 10.933936,38.161024 11.001999,38.045799 11.026374,37.989988 11.080001,37.867204 11.096876,37.808796 11.134003,37.680295 11.143376,37.620204 11.164001,37.487999 11.166188,37.427187 11.170998,37.293404 11.16506,37.232871 11.152,37.099699 11.138874,37.040323 11.110001,36.9097 11.077487,36.819501 11.043998,36.726599 11.002273,36.645254 10.955002,36.5531 10.920938,36.502787 10.846001,36.392096 10.805689,36.346472 10.717002,36.246099 10.616624,36.157619 10.570998,36.117399 10.460315,36.042192 10.410004,36.008004 10.291063,35.947227 10.237,35.9196 10.111187,35.874291 10.054001,35.8537 9.923373,35.824483 9.863998,35.811204 9.669998,35.7929" style="fill: black"/>
    <ns0:polygon slic3r:type="hole" points="47.699996,8.199997 47.699996,38.199996 68.899992,38.199996 68.899992,8.199997" style="fill: black"/>
    <ns0:polygon slic3r:type="hole" points="37.82062,7.512793 37.759995,7.514702 37.627311,7.535667 37.566999,7.545196 37.439124,7.582531 37.380996,7.599501 37.257931,7.652647 37.201996,7.676802 37.086496,7.744932 37.033996,7.775902 36.928807,7.857921 36.880995,7.895202 36.837871,7.938201 36.742996,8.032798 36.705808,8.08086 36.623992,8.186598 36.593056,8.238974 36.524992,8.354202 36.500624,8.410013 36.447008,8.532799 36.430132,8.591206 36.393004,8.719703 36.383315,8.779797 36.362,8.912003 36.360128,8.972813 36.356004,9.106597 36.361939,9.167129 36.375,9.300301 36.388127,9.359676 36.417008,9.490303 36.437631,9.54752 36.476421,9.655147 36.473741,9.655147 36.571,9.846901 36.605375,9.897211 36.681,10.007896 36.721311,10.053521 36.809996,10.1539 36.910368,10.242381 36.955992,10.2826 37.066687,10.35781 37.117004,10.391998 37.235931,10.452773 37.289992,10.4804 37.415816,10.525708 37.473008,10.546303 37.603624,10.575519 37.662995,10.588799 37.796372,10.601382 37.856995,10.607101 37.990371,10.602905 38.050996,10.600998 38.2258,10.573379 38.244004,10.570503 38.372563,10.533168 38.431,10.516196 38.553368,10.463057 38.608991,10.438904 38.649238,10.415162 38.649238,10.415163 38.776991,10.339798 38.882871,10.257779 38.931,10.220497 39.025184,10.125899 39.067991,10.082901 39.105495,10.034838 39.188004,9.929099 39.218939,9.876755 39.287004,9.761596 39.311064,9.705753 39.364,9.5829 39.380876,9.524495 39.417999,9.396004 39.427688,9.335907 39.449004,9.203696 39.450875,9.142917 39.455,9.0092 39.449371,8.948637 39.436996,8.815399 39.423559,8.756022 39.393995,8.625396 39.373372,8.568179 39.328003,8.442298 39.300503,8.38811 39.240004,8.268897 39.205628,8.218587 39.130003,8.107901 39.090004,8.062276 39.002,7.961899 38.901627,7.873348 38.856003,7.833098 38.745319,7.757887 38.695008,7.723701 38.575376,7.662925 38.520996,7.635299 38.395183,7.58999 38.337996,7.569397 38.207371,7.54018 38.147996,7.526901 38.014619,7.514317 37.953996,7.508598" style="fill: black"/>
  </ns0:g>
  </svg>