<?xml version="1.0" encoding="UTF-8" standalone="yes"?>
<!DOCTYPE svg PUBLIC "-//W3C//DTD SVG 1.0//EN" "http://www.w3.org/TR/2001/REC-SVG-20010904/DTD/svg10.dtd">
<svg width="78.899993" height="46.400001" xmlns="http://www.w3.org/2000/svg" xmlns:svg="http://www.w3.org/2000/svg" xmlns:xlink="http://www.w3.org/1999/xlink" xmlns:slic3r="http://slic3r.org/namespaces/slic3r">
  <!-- 
  Generated using Slic3r 1.2.9
  http://slic3r.org/
   -->
  <g id="layer0" slic3r:z="1.75e-07">
    <polygon slic3r:type="contour" points="78.899992,46.4 0,46.4 0,0 78.899992,0" style="fill: white" />
    <polygon slic3r:type="hole" points="9.588188,23.940219 7.5,26.028395 19.430259,37.958751 20.934998,39.4635 23.023183,37.375324 40.026992,20.371598 38.55754,18.902134 26.592001,6.9365" style="fill: black" />
    <polygon slic3r:type="hole" points="9.648669,35.793568 9.474998,35.799003 9.453997,35.80234 9.282997,35.8295 9.262543,35.83544 9.096001,35.883795 9.076532,35.892251 8.917998,35.961096 8.875078,35.986416 8.749999,36.060204 8.733156,36.073251 8.596,36.179496 8.473984,36.302047 8.459,36.317099 8.352122,36.454079 8.338997,36.470899 8.250825,36.620164 8.239997,36.638496 8.171423,36.797563 8.163002,36.8171 8.114906,36.983556 8.109001,37.003995 8.081392,37.175264 8.078003,37.196295 8.072654,37.369528 8.071998,37.3908 8.088027,37.563407 8.089996,37.584604 8.114509,37.692899 8.133002,37.774595 8.191779,37.937676 8.198996,37.957703 8.277376,38.112139 8.287002,38.131104 8.38497,38.274491 8.397003,38.292099 8.511002,38.422136 8.525001,38.438104 8.540969,38.452191 8.670998,38.566903 8.688607,38.578867 8.832,38.6763 8.851032,38.685968 9.005996,38.764699 9.026013,38.771908 9.189002,38.830596 9.209783,38.835243 9.378997,38.873099 9.400217,38.875104 9.572997,38.891404 9.594217,38.890735 9.766997,38.8853 9.787998,38.881963 9.958999,38.854796 9.979453,38.848856 10.146003,38.8005 10.165581,38.792043 10.324997,38.723196 10.343371,38.712356 10.492995,38.6241 10.509731,38.611051 10.646003,38.5048 10.768903,38.382252 10.783997,38.367203 10.889983,38.230224 10.903,38.213399 10.99117,38.064132 11.001998,38.0458 11.07147,37.886735 11.080002,37.867203 11.128097,37.700739 11.134002,37.680296 11.160719,37.509032 11.164001,37.487999 11.170233,37.314687 11.170998,37.293404 11.154077,37.120887 11.151999,37.099699 11.114595,36.93048 11.110001,36.909699 11.051218,36.746628 11.043999,36.7266 10.964735,36.572075 10.955001,36.553099 10.857922,36.409703 10.846001,36.392096 10.731111,36.262067 10.717003,36.2461 10.701033,36.232023 10.570999,36.1174 10.55339,36.105436 10.410003,36.008003 10.391082,35.998336 10.236999,35.9196 10.216983,35.912391 10.054001,35.8537 10.033219,35.849052 9.863998,35.811204 9.842778,35.809199 9.669997,35.792899" style="fill: black" />
    <polygon slic3r:type="hole" points="47.699996,8.199997 47.699996,38.199996 68.899992,38.199996 68.899992,8.199997" style="fill: black" />
    <polygon slic3r:type="hole" points="37.932776,7.509265 37.759995,7.514702 37.738888,7.518036 37.566999,7.545196 37.546656,7.551135 37.380996,7.599502 37.361416,7.607956 37.201995,7.676803 37.18362,7.687641 37.033995,7.775902 37.017259,7.78895 36.880995,7.895202 36.758087,8.017749 36.742996,8.032798 36.637007,8.169777 36.623991,8.186599 36.53582,8.33587 36.524992,8.354201 36.455535,8.513265 36.447008,8.532798 36.398912,8.69926 36.393003,8.719704 36.365392,8.890969 36.362,8.912002 36.35666,9.085313 36.356004,9.106598 36.372923,9.279114 36.375,9.300301 36.412412,9.469522 36.417008,9.490303 36.475783,9.653374 36.482999,9.6734 36.561376,9.827924 36.570999,9.8469 36.668968,9.990287 36.681,10.007896 36.795888,10.137931 36.809996,10.153899 36.825964,10.167977 36.955991,10.282599 36.973604,10.294565 37.117004,10.391998 37.135923,10.401666 37.289992,10.4804 37.310008,10.487608 37.473007,10.546302 37.493788,10.550951 37.662995,10.588798 37.738802,10.59595 37.856996,10.6071 37.878216,10.606432 38.050996,10.600998 38.072107,10.597663 38.244004,10.570503 38.264455,10.564563 38.431,10.516197 38.450467,10.507743 38.608992,10.438904 38.627367,10.428064 38.776992,10.339798 38.793835,10.326749 38.931,10.220496 38.945984,10.205446 39.067992,10.0829 39.174875,9.945922 39.188004,9.929099 39.276175,9.779918 39.287004,9.761596 39.355579,9.602446 39.363999,9.582901 39.412092,9.416445 39.418,9.396004 39.445611,9.224731 39.449004,9.203697 39.454344,9.030473 39.455,9.009201 39.438963,8.836595 39.436996,8.815399 39.398699,8.646177 39.393996,8.625397 39.33522,8.462325 39.328004,8.442299 39.249627,8.287862 39.240004,8.268898 39.142036,8.125511 39.130004,8.107902 39.016,7.977868 39.001999,7.961898 38.986032,7.947811 38.856004,7.833099 38.838396,7.821134 38.695007,7.7237 38.675976,7.714032 38.520995,7.635299 38.50098,7.628091 38.337995,7.569397 38.317215,7.564748 38.147995,7.526901 38.126776,7.524899 37.953996,7.508598" style="fill: black" />
  </g>
  <g id="layer1" slic3r:z="5e-07">
    <polygon slic3r:type="contour" points="78.899992,46.4 0,46.4 0,0 78.899992,0" style="fill: white" />
    <polygon slic3r:type="hole" points="13.466249,20.06218 7.5,26.028396 16.73656,35.265031 20.934998,39.4635 26.901245,33.49728 40.026992,20.371598 35.828555,16.173129 26.592002,6.9365" style="fill: black" />
    <polygon slic3r:type="hole" points="9.609061,35.794807 9.474998,35.799004 9.414998,35.808535 9.282997,35.8295 9.22456,35.846468 9.096001,35.883795 9.040375,35.907951 8.917998,35.961096 8.865499,35.992067 8.75,36.060203 8.701874,36.097484 8.596001,36.179496 8.501812,36.2741 8.458999,36.3171 8.376497,36.422836 8.338997,36.470899 8.270934,36.586124 8.239998,36.638495 8.187062,36.761288 8.163001,36.8171 8.125875,36.945592 8.109001,37.003995 8.08769,37.136203 8.078002,37.196296 8.073875,37.330015 8.071998,37.390799 8.084371,37.524039 8.089995,37.584603 8.119562,37.715223 8.133003,37.774596 8.178373,37.900483 8.198997,37.957704 8.259501,38.076916 8.287002,38.131104 8.362627,38.241787 8.397003,38.2921 8.485001,38.392475 8.525002,38.438104 8.570626,38.478352 8.670997,38.566903 8.721311,38.601092 8.832001,38.6763 8.886374,38.703923 9.005997,38.7647 9.063186,38.785292 9.189002,38.830596 9.248376,38.84388 9.378998,38.8731 9.572997,38.891404 9.633622,38.889496 9.766998,38.8853 9.826999,38.875767 9.959,38.854796 10.017439,38.837827 10.146003,38.8005 10.201938,38.776344 10.324996,38.723196 10.377496,38.692228 10.492996,38.624099 10.54081,38.58682 10.646004,38.504799 10.740873,38.410204 10.783997,38.367204 10.865811,38.261464 10.902999,38.2134 10.971062,38.098175 11.001999,38.045799 11.055626,37.923015 11.080001,37.867204 11.117128,37.738703 11.134002,37.680296 11.148042,37.5903 11.164001,37.488 11.16881,37.354216 11.170998,37.293403 11.157936,37.160231 11.152,37.0997 11.123125,36.969075 11.110001,36.9097 11.064624,36.783819 11.043999,36.7266 10.982813,36.607319 10.955002,36.5531 10.880064,36.442408 10.846,36.392096 10.757314,36.291723 10.717003,36.2461 10.671376,36.205879 10.570999,36.1174 10.520687,36.083211 10.410004,36.008004 10.35594,35.980376 10.236999,35.919599 10.179812,35.899007 10.054,35.853699 9.994625,35.84042 9.863998,35.811204 9.669998,35.7929" style="fill: black" />
    <polygon slic3r:type="hole" points="47.699996,8.199997 47.699996,38.199996 68.899992,38.199996 68.899992,8.199997" style="fill: black" />
    <polygon slic3r:type="hole" points="37.893371,7.510506 37.759995,7.514702 37.699684,7.52423 37.567,7.545195 37.508872,7.562166 37.380995,7.599502 37.32506,7.623658 37.201996,7.676803 37.149495,7.707772 37.033996,7.775902 36.986184,7.813182 36.880995,7.895202 36.78612,7.989799 36.742995,8.032799 36.66118,8.138536 36.623992,8.186599 36.555927,8.301826 36.524992,8.354201 36.471375,8.476988 36.447007,8.532799 36.409879,8.661296 36.393004,8.719704 36.371688,8.851909 36.361999,8.912003 36.357875,9.045787 36.356003,9.106597 36.369063,9.239768 36.375,9.300301 36.403879,9.430926 36.417007,9.490302 36.462376,9.616183 36.483,9.673401 36.543499,9.792681 36.571,9.846901 36.646624,9.957585 36.680999,10.007895 36.769684,10.108274 36.809995,10.153899 36.855619,10.194118 36.955991,10.282599 37.006307,10.316786 37.117003,10.391997 37.171063,10.419623 37.289991,10.480399 37.347183,10.500994 37.473008,10.546303 37.532379,10.559582 37.662996,10.588799 37.723619,10.594517 37.856995,10.607101 37.91762,10.605193 38.050995,10.600997 38.111311,10.591468 38.244003,10.570503 38.302439,10.553532 38.431,10.516196 38.486623,10.492043 38.608992,10.438903 38.661491,10.407933 38.776992,10.339797 38.825119,10.302516 38.931,10.220496 38.973808,10.177497 39.067991,10.082901 39.1505,9.977162 39.188003,9.9291 39.256068,9.813941 39.287003,9.761597 39.33994,9.638743 39.364,9.5829 39.401123,9.454409 39.417999,9.396004 39.439316,9.263792 39.449003,9.203697 39.453128,9.06998 39.455,9.009201 39.442624,8.875962 39.436996,8.815399 39.407432,8.684773 39.393995,8.625396 39.348627,8.499516 39.328003,8.442298 39.267503,8.323085 39.240004,8.268898 39.164379,8.158212 39.130004,8.107902 39.042,8.007525 39.002,7.961899 38.956375,7.921648 38.856003,7.833098 38.805691,7.798911 38.695008,7.723701 38.640627,7.696075 38.520995,7.635298 38.463808,7.614705 38.337995,7.569396 38.27862,7.556117 38.147996,7.526901 38.087372,7.521181 37.953996,7.508598" style="fill: black" />
  </g>
  <g id="layer2" slic3r:z="8e-07">
    <polygon slic3r:type="contour" points="78.899992,46.4 0,46.4 0,0 78.899992,0" style="fill: white" />
    <polygon slic3r:type="hole" points="17.045999,16.482448 7.5,26.028395 20.934998,39.463499 30.480996,29.917548 40.026991,20.371598 33.309495,13.654048 26.592002,6.9365" style="fill: black" />
    <polygon slic3r:type="hole" points="9.474997,35.799004 9.378998,35.814251 9.282996,35.8295 9.096001,35.883796 9.007,35.922447 8.917998,35.961096 8.834,36.010647 8.749999,36.060204 8.673,36.119847 8.596,36.179496 8.527499,36.248296 8.459,36.317099 8.398997,36.394 8.338997,36.4709 8.289497,36.554695 8.239998,36.638495 8.2015,36.727799 8.163001,36.8171 8.136001,36.910547 8.109,37.003996 8.093502,37.100147 8.078003,37.196296 8.075001,37.293547 8.071998,37.390799 8.080996,37.487703 8.089995,37.584603 8.111499,37.679599 8.133002,37.774595 8.166,37.866152 8.198996,37.957703 8.242999,38.044403 8.287001,38.131103 8.342003,38.2116 8.397003,38.2921 8.461001,38.365103 8.525002,38.438104 8.670997,38.566903 8.751499,38.621599 8.832001,38.6763 9.005996,38.764699 9.189002,38.830595 9.284,38.851847 9.378998,38.8731 9.572997,38.891404 9.766997,38.8853 9.959,38.854795 10.146003,38.8005 10.235501,38.761847 10.324996,38.723196 10.408996,38.673647 10.492995,38.6241 10.5695,38.564447 10.646003,38.5048 10.715,38.435999 10.783997,38.367203 10.843497,38.290304 10.903,38.213399 10.952499,38.1296 11.001998,38.0458 11.041,37.956503 11.080002,37.867203 11.12542,37.710001 11.134003,37.680295 11.164001,37.488 11.1675,37.390703 11.170998,37.293403 11.152,37.0997 11.130999,37.004699 11.11,36.909699 11.077,36.818152 11.043998,36.726599 10.9995,36.639848 10.955002,36.5531 10.900502,36.4726 10.846001,36.392096 10.781501,36.319095 10.717003,36.2461 10.644,36.181751 10.570998,36.117399 10.490502,36.062704 10.410004,36.008004 10.323502,35.9638 10.236999,35.919599 10.145499,35.886647 10.054,35.853699 9.958999,35.832451 9.863998,35.811204 9.669998,35.7929" style="fill: black" />
    <polygon slic3r:type="hole" points="47.699996,8.199997 47.699996,38.199996 68.899992,38.199996 68.899992,8.199997" style="fill: black" />
    <polygon slic3r:type="hole" points="37.759996,7.514702 37.663495,7.529949 37.566999,7.545196 37.438081,7.582834 37.380995,7.599502 37.291495,7.638153 37.201996,7.676802 37.117996,7.726352 37.033995,7.775902 36.880996,7.895201 36.811996,7.964 36.742995,8.032799 36.683496,8.109698 36.623991,8.186599 36.574492,8.2704 36.524992,8.354202 36.485999,8.443501 36.447007,8.532799 36.420007,8.626252 36.393004,8.719703 36.377503,8.815853 36.362,8.912002 36.358999,9.0093 36.356003,9.106597 36.365504,9.20345 36.375,9.3003 36.417008,9.490303 36.482999,9.6734 36.571,9.8469 36.625999,9.927397 36.680999,10.007895 36.745496,10.080898 36.809995,10.153899 36.882992,10.21825 36.955992,10.2826 37.036496,10.337299 37.117003,10.391997 37.203496,10.436199 37.289992,10.4804 37.448305,10.537408 37.473008,10.546303 37.568,10.567551 37.662996,10.588799 37.856995,10.607101 37.953995,10.604049 38.050996,10.600998 38.1475,10.585749 38.244003,10.570503 38.337504,10.543349 38.431,10.516197 38.519995,10.47755 38.608992,10.438903 38.776992,10.339798 38.853996,10.280147 38.930999,10.220497 39.067992,10.0829 39.127999,10.006 39.188003,9.9291 39.237503,9.845348 39.287004,9.761596 39.325504,9.672248 39.363999,9.582901 39.390999,9.489452 39.418,9.396003 39.4335,9.299849 39.449004,9.203697 39.452,9.106448 39.455,9.009201 39.445999,8.912299 39.436995,8.815398 39.393996,8.625397 39.328004,8.442299 39.284003,8.355597 39.240004,8.268898 39.130003,8.107901 39.066,8.034901 39.002,7.961899 38.928999,7.897498 38.856003,7.833098 38.775503,7.778399 38.695008,7.723701 38.608,7.6795 38.520996,7.635299 38.337995,7.569396 38.147995,7.5269 38.050996,7.51775 37.953996,7.508598" style="fill: black" />
  </g>
  <g id="layer3" slic3r:z="1.1e-06">
    <polygon slic3r:type="contour" points="78.899992,46.4 0,46.4 0,0 78.899992,0" style="fill: white" />
    <polygon slic3r:type="hole" points="20.625752,12.902716 7.5,26.028396 11.698436,30.226865 20.934998,39.4635 34.060744,26.337817 40.026992,20.371598 30.790435,11.134967 26.592002,6.9365" style="fill: black" />
    <polygon slic3r:type="hole" points="9.535935,35.797096 9.474998,35.799003 9.342996,35.819968 9.282996,35.8295 9.154437,35.866827 9.096001,35.883795 8.973625,35.936939 8.917998,35.961096 8.8025,36.029231 8.75,36.060203 8.644126,36.142215 8.596,36.179496 8.553188,36.222495 8.458999,36.3171 8.421499,36.365163 8.338996,36.4709 8.30806,36.523271 8.239997,36.638496 8.215936,36.694308 8.163002,36.8171 8.146125,36.875504 8.109001,37.003995 8.099313,37.064088 8.078003,37.196296 8.076125,37.25708 8.071998,37.3908 8.077622,37.451363 8.089995,37.584603 8.103435,37.643975 8.133003,37.774596 8.153626,37.831816 8.198996,37.957703 8.226498,38.011891 8.287002,38.131104 8.321377,38.181416 8.397003,38.292099 8.437003,38.337728 8.525001,38.438103 8.625373,38.526655 8.670998,38.566904 8.781688,38.642112 8.832001,38.6763 8.951623,38.737076 9.005996,38.764699 9.131814,38.810004 9.189002,38.830596 9.319624,38.859815 9.378998,38.8731 9.572997,38.891404 9.706373,38.887207 9.766998,38.885299 9.898998,38.864328 9.959,38.854796 10.087564,38.817468 10.146003,38.8005 10.269062,38.747351 10.324996,38.723196 10.440496,38.655067 10.492995,38.6241 10.598189,38.542079 10.646003,38.5048 10.689126,38.4618 10.783996,38.367204 10.821184,38.31914 10.902999,38.2134 10.933936,38.161024 11.001999,38.045799 11.026374,37.989988 11.080001,37.867204 11.096876,37.808796 11.134003,37.680295 11.143376,37.620204 11.164001,37.487999 11.166188,37.427187 11.170998,37.293404 11.16506,37.232871 11.152,37.099699 11.138874,37.040323 11.110001,36.9097 11.077487,36.819501 11.043998,36.726599 11.002273,36.645254 10.955002,36.5531 10.920938,36.502787 10.846001,36.392096 10.805689,36.346472 10.717002,36.246099 10.616624,36.157619 10.570998,36.117399 10.460315,36.042192 10.410004,36.008004 10.291063,35.947227 10.237,35.9196 10.111187,35.874291 10.054001,35.8537 9.923373,35.824483 9.863998,35.811204 9.669998,35.7929" style="fill: black" />
    <polygon slic3r:type="hole" points="47.699996,8.199997 47.699996,38.199996 68.899992,38.199996 68.899992,8.199997" style="fill: black" />
    <polygon slic3r:type="hole" points="37.82062,7.512793 37.759995,7.514702 37.627311,7.535667 37.566999,7.545196 37.439124,7.582531 37.380996,7.599501 37.257931,7.652647 37.201996,7.676802 37.086496,7.744932 37.033996,7.775902 36.928807,7.857921 36.880995,7.895202 36.837871,7.938201 36.742996,8.032798 36.705808,8.08086 36.623992,8.186598 36.593056,8.238974 36.524992,8.354202 36.500624,8.410013 36.447008,8.532799 36.430132,8.591206 36.393004,8.719703 36.383315,8.779797 36.362,8.912003 36.360128,8.972813 36.356004,9.106597 36.361939,9.167129 36.375,9.300301 36.388127,9.359676 36.417008,9.490303 36.437631,9.54752 36.476421,9.655147 36.473741,9.655147 36.571,9.846901 36.605375,9.897211 36.681,10.007896 36.721311,10.053521 36.809996,10.1539 36.910368,10.242381 36.955992,10.2826 37.066687,10.35781 37.117004,10.391998 37.235931,10.452773 37.289992,10.4804 37.415816,10.525708 37.473008,10.546303 37.603624,10.575519 37.662995,10.588799 37.796372,10.601382 37.856995,10.607101 37.990371,10.602905 38.050996,10.600998 38.2258,10.573379 38.244004,10.570503 38.372563,10.533168 38.431,10.516196 38.553368,10.463057 38.608991,10.438904 38.649238,10.415162 38.649238,10.415163 38.776991,10.339798 38.882871,10.257779 38.931,10.220497 39.025184,10.125899 39.067991,10.082901 39.105495,10.034838 39.188004,9.929099 39.218939,9.876755 39.287004,9.761596 39.311064,9.705753 39.364,9.5829 39.380876,9.524495 39.417999,9.396004 39.427688,9.335907 39.449004,9.203696 39.450875,9.142917 39.455,9.0092 39.449371,8.948637 39.436996,8.815399 39.423559,8.756022 39.393995,8.625396 39.373372,8.568179 39.328003,8.442298 39.300503,8.38811 39.240004,8.268897 39.205628,8.218587 39.130003,8.107901 39.090004,8.062276 39.002,7.961899 38.901627,7.873348 38.856003,7.833098 38.745319,7.757887 38.695008,7.723701 38.575376,7.662925 38.520996,7.635299 38.395183,7.58999 38.337996,7.569397 38.207371,7.54018 38.147996,7.526901 38.014619,7.514317 37.953996,7.508598" style="fill: black" />
  </g>
  <g id="layer4" slic3r:z="1.4e-06">
    <polygon slic3r:type="contour" points="78.899992,46.4 0,46.4 0,0 78.899992,0" style="fill: white" />
    <polygon slic3r:type="hole" points="24.205499,9.322986 7.499999,26.028396 9.179373,27.707783 20.934998,39.4635 37.640491,22.758084 40.026992,20.371598 28.271375,8.615886 26.592002,6.9365" style="fill: black" />
    <polygon slic3r:type="hole" points="9.499373,35.798239 9.474997,35.799004 9.306996,35.825688 9.282997,35.8295 9.119376,35.877007 9.096,35.883796 8.940248,35.951432 8.917999,35.961096 8.770999,36.047816 8.749999,36.060204 8.615251,36.164583 8.596,36.179496 8.578876,36.196695 8.459,36.317099 8.444,36.336323 8.338996,36.4709 8.326621,36.491848 8.239998,36.638495 8.230373,36.660819 8.163002,36.8171 8.156252,36.840463 8.109001,37.003995 8.105125,37.028032 8.078003,37.196296 8.077252,37.220607 8.071998,37.390799 8.074247,37.415023 8.089996,37.584604 8.095371,37.608351 8.133003,37.774596 8.141251,37.797483 8.198997,37.957704 8.223861,38.006696 8.287002,38.131104 8.300751,38.151227 8.397002,38.292099 8.413003,38.310352 8.525002,38.438104 8.652747,38.550803 8.670998,38.566904 8.811876,38.662624 8.832001,38.6763 8.984248,38.753648 9.005996,38.764699 9.166126,38.822359 9.189003,38.830596 9.355249,38.867788 9.378998,38.8731 9.572997,38.891403 9.742748,38.886063 9.766997,38.8853 9.934999,38.858608 9.958999,38.854796 10.122627,38.807288 10.146004,38.8005 10.302623,38.732859 10.324997,38.723195 10.471995,38.636488 10.492995,38.6241 10.626878,38.519711 10.646003,38.5048 10.663253,38.487599 10.783997,38.367204 10.798872,38.347979 10.902999,38.2134 10.915375,38.192447 11.001998,38.0458 11.011748,38.023476 11.080001,37.867204 11.086751,37.84384 11.134003,37.680295 11.137753,37.656259 11.164001,37.488 11.164876,37.463675 11.170998,37.293403 11.168622,37.269191 11.152,37.099699 11.146749,37.075951 11.110001,36.9097 11.10175,36.886811 11.043999,36.7266 11.032873,36.704911 10.955001,36.553099 10.941377,36.532976 10.846,36.392095 10.829876,36.373848 10.717002,36.246099 10.58925,36.133488 10.570998,36.1174 10.430127,36.021679 10.410003,36.008003 10.258625,35.930651 10.236999,35.919599 10.076876,35.861936 10.054001,35.8537 9.887748,35.816516 9.863998,35.811204 9.669998,35.7929" style="fill: black" />
    <polygon slic3r:type="hole" points="47.699996,8.199997 47.699996,38.199996 68.899992,38.199996 68.899992,8.199997" style="fill: black" />
    <polygon slic3r:type="hole" points="37.784248,7.513938 37.759996,7.514702 37.591123,7.541384 37.567,7.545196 37.404247,7.592714 37.380995,7.599502 37.224371,7.667141 37.201996,7.676802 37.054995,7.763514 37.033996,7.775901 36.900119,7.88029 36.880996,7.895201 36.863743,7.912402 36.742996,8.032798 36.72812,8.052023 36.623991,8.186599 36.611616,8.207549 36.524991,8.354202 36.515244,8.376526 36.447007,8.532799 36.440256,8.556161 36.393003,8.719704 36.389128,8.74374 36.362,8.912003 36.361252,8.936326 36.356004,9.106597 36.35838,9.130811 36.375,9.300301 36.380251,9.32405 36.417008,9.490303 36.425255,9.513189 36.483,9.673401 36.493999,9.695087 36.571,9.846901 36.584751,9.867024 36.681,10.007896 36.697123,10.026145 36.809996,10.1539 36.937743,10.266511 36.955992,10.2826 37.096875,10.378322 37.117003,10.391997 37.268368,10.46935 37.289991,10.480399 37.450132,10.538065 37.473007,10.546303 37.639247,10.583486 37.662996,10.588799 37.832743,10.604812 37.856996,10.607101 38.075074,10.60024 38.075074,10.597193 38.21988,10.574314 38.244004,10.570502 38.407623,10.522985 38.431,10.516196 38.586743,10.448566 38.608992,10.438903 38.755991,10.352186 38.776992,10.339797 38.911747,10.23541 38.931,10.220497 39.050868,10.100099 39.067991,10.082901 39.082992,10.063675 39.188004,9.929099 39.20038,9.908161 39.287004,9.761596 39.296628,9.739259 39.363999,9.5829 39.370752,9.559538 39.417999,9.396004 39.421875,9.371966 39.449004,9.203696 39.449752,9.179384 39.455,9.009201 39.452747,8.984975 39.436996,8.815398 39.431619,8.791648 39.393996,8.625397 39.385748,8.60251 39.328003,8.442298 39.317003,8.420623 39.240003,8.268897 39.226256,8.248773 39.130003,8.107901 39.114004,8.089652 39.001999,7.961898 38.874251,7.849198 38.856003,7.833098 38.715131,7.737375 38.695008,7.723701 38.542747,7.646349 38.520995,7.635298 38.360872,7.577635 38.337996,7.569397 38.171743,7.532212 38.147996,7.526901 37.978247,7.510885 37.953995,7.508598" style="fill: black" />
  </g>
</svg>
