<svg width="78.899993mm" height="46.400001mm" viewBox="0 0 78.899993 46.400001"><ns0:g xmlns:ns0="http://www.w3.org/2000/svg" xmlns:slic3r="http://slic3r.org/namespaces/slic3r" id="layer1" slic3r:z="5e-07">
    <ns0:polygon slic3r:type="contour" points="78.899992,46.4 0,46.4 0,0 78.899992,0" style="fill: white"/>
    <ns0:polygon slic3r:type="hole" points="13.466249,20.06218 7.5,26.028396 16.73656,35.265031 20.934998,39.4635 26.901245,33.49728 40.026992,20.371598 35.828555,16.173129 26.592002,6.9365" style="fill: black"/>
    <ns0:polygon slic3r:type="hole" points="9.609061,35.794807 9.474998,35.799004 9.414998,35.808535 9.282997,35.8295 9.22456,35.846468 9.096001,35.883795 9.040375,35.907951 8.917998,35.961096 8.865499,35.992067 8.75,36.060203 8.701874,36.097484 8.596001,36.179496 8.501812,36.2741 8.458999,36.3171 8.376497,36.422836 8.338997,36.470899 8.270934,36.586124 8.239998,36.638495 8.187062,36.761288 8.163001,36.8171 8.125875,36.945592 8.109001,37.003995 8.08769,37.136203 8.078002,37.196296 8.073875,37.330015 8.071998,37.390799 8.084371,37.524039 8.089995,37.584603 8.119562,37.715223 8.133003,37.774596 8.178373,37.900483 8.198997,37.957704 8.259501,38.076916 8.287002,38.131104 8.362627,38.241787 8.397003,38.2921 8.485001,38.392475 8.525002,38.438104 8.570626,38.478352 8.670997,38.566903 8.721311,38.601092 8.832001,38.6763 8.886374,38.703923 9.005997,38.7647 9.063186,38.785292 9.189002,38.830596 9.248376,38.84388 9.378998,38.8731 9.572997,38.891404 9.633622,38.889496 9.766998,38.8853 9.826999,38.875767 9.959,38.854796 10.017439,38.837827 10.146003,38.8005 10.201938,38.776344 10.324996,38.723196 10.377496,38.692228 10.492996,38.624099 10.54081,38.58682 10.646004,38.504799 10.740873,38.410204 10.783997,38.367204 10.865811,38.261464 10.902999,38.2134 10.971062,38.098175 11.001999,38.045799 11.055626,37.923015 11.080001,37.867204 11.117128,37.738703 11.134002,37.680296 11.148042,37.5903 11.164001,37.488 11.16881,37.354216 11.170998,37.293403 11.157936,37.160231 11.152,37.0997 11.123125,36.969075 11.110001,36.9097 11.064624,36.783819 11.043999,36.7266 10.982813,36.607319 10.955002,36.5531 10.880064,36.442408 10.846,36.392096 10.757314,36.291723 10.717003,36.2461 10.671376,36.205879 10.570999,36.1174 10.520687,36.083211 10.410004,36.008004 10.35594,35.980376 10.236999,35.919599 10.179812,35.899007 10.054,35.853699 9.994625,35.84042 9.863998,35.811204 9.669998,35.7929" style="fill: black"/>
    <ns0:polygon slic3r:type="hole" points="47.699996,8.199997 47.699996,38.199996 68.899992,38.199996 68.899992,8.199997" style="fill: black"/>
    <ns0:polygon slic3r:type="hole" points="37.893371,7.510506 37.759995,7.514702 37.699684,7.52423 37.567,7.545195 37.508872,7.562166 37.380995,7.599502 37.32506,7.623658 37.201996,7.676803 37.149495,7.707772 37.033996,7.775902 36.986184,7.813182 36.880995,7.895202 36.78612,7.989799 36.742995,8.032799 36.66118,8.138536 36.623992,8.186599 36.555927,8.301826 36.524992,8.354201 36.471375,8.476988 36.447007,8.532799 36.409879,8.661296 36.393004,8.719704 36.371688,8.851909 36.361999,8.912003 36.357875,9.045787 36.356003,9.106597 36.369063,9.239768 36.375,9.300301 36.403879,9.430926 36.417007,9.490302 36.462376,9.616183 36.483,9.673401 36.543499,9.792681 36.571,9.846901 36.646624,9.957585 36.680999,10.007895 36.769684,10.108274 36.809995,10.153899 36.855619,10.194118 36.955991,10.282599 37.006307,10.316786 37.117003,10.391997 37.171063,10.419623 37.289991,10.480399 37.347183,10.500994 37.473008,10.546303 37.532379,10.559582 37.662996,10.588799 37.723619,10.594517 37.856995,10.607101 37.91762,10.605193 38.050995,10.600997 38.111311,10.591468 38.244003,10.570503 38.302439,10.553532 38.431,10.516196 38.486623,10.492043 38.608992,10.438903 38.661491,10.407933 38.776992,10.339797 38.825119,10.302516 38.931,10.220496 38.973808,10.177497 39.067991,10.082901 39.1505,9.977162 39.188003,9.9291 39.256068,9.813941 39.287003,9.761597 39.33994,9.638743 39.364,9.5829 39.401123,9.454409 39.417999,9.396004 39.439316,9.263792 39.449003,9.203697 39.453128,9.06998 39.455,9.009201 39.442624,8.875962 39.436996,8.815399 39.407432,8.684773 39.393995,8.625396 39.348627,8.499516 39.328003,8.442298 39.267503,8.323085 39.240004,8.268898 39.164379,8.158212 39.130004,8.107902 39.042,8.007525 39.002,7.961899 38.956375,7.921648 38.856003,7.833098 38.805691,7.798911 38.695008,7.723701 38.640627,7.696075 38.520995,7.635298 38.463808,7.614705 38.337995,7.569396 38.27862,7.556117 38.147996,7.526901 38.087372,7.521181 37.953996,7.508598" style="fill: black"/>
  </ns0:g>
  </svg>