<?xml version="1.0" encoding="UTF-8" standalone="yes"?>
<!DOCTYPE svg PUBLIC "-//W3C//DTD SVG 1.0//EN" "http://www.w3.org/TR/2001/REC-SVG-20010904/DTD/svg10.dtd">
<svg width="79.100006" height="46.599998" xmlns="http://www.w3.org/2000/svg" xmlns:svg="http://www.w3.org/2000/svg" xmlns:xlink="http://www.w3.org/1999/xlink" xmlns:slic3r="http://slic3r.org/namespaces/slic3r">
  <!-- 
  Generated using Slic3r 1.2.9
  http://slic3r.org/
   -->
  <g id="layer0" slic3r:z="1.5e-07">
    <polygon slic3r:type="contour" points="79.100008,46.6 0,46.6 0,0 79.100008,0" style="fill: white" />
    <polygon slic3r:type="hole" points="67.173008,17.3118 66.426012,17.4063 65.698539,17.592695 64.995012,17.870999 64.335007,18.234 63.725007,18.6769 63.176012,19.1927 62.696,19.773299 62.292008,20.409499 61.971008,21.0913 61.739,21.8079 61.597,22.547999 61.550004,23.3 61.597,24.051999 61.739,24.792099 61.971008,25.5087 62.292008,26.1905 62.695999,26.826699 63.176011,27.407299 63.725007,27.923099 64.335008,28.366 64.995012,28.729 65.695999,29.0063 66.426011,29.193699 67.173008,29.2882 67.926999,29.2882 68.673991,29.1937 69.404008,29.006299 70.104991,28.729 70.765,28.365999 71.375,27.923099 71.923991,27.4073 72.404007,26.8267 72.807999,26.1905 73.128999,25.5087 73.361008,24.7921 73.503008,24.052 73.549999,23.299999 73.503008,22.548 73.361008,21.8079 73.128999,21.091299 72.808,20.4095 72.404008,19.7733 71.923992,19.1927 71.375,18.6769 70.765,18.234 70.104991,17.871 69.404008,17.5937 68.673991,17.4063 67.927,17.3118" style="fill: black" />
    <polygon slic3r:type="hole" points="12.030006,19.8069 11.594001,19.862 11.167999,19.9713 10.760001,20.1331 10.375,20.344899 10.019005,20.6032 9.699005,20.904099 9.417999,21.242799 9.183005,21.6139 8.996002,22.0116 8.860001,22.429599 8.778,22.861299 8.75,23.299999 8.777999,23.738699 8.86,24.170399 8.996002,24.5884 9.183006,24.986099 9.417998,25.357199 9.699005,25.6959 10.019004,25.996799 10.374999,26.255099 10.760001,26.4669 11.167999,26.6287 11.594001,26.737999 12.030006,26.7931 12.47,26.7931 12.906006,26.737999 13.332001,26.6287 13.702145,26.487727 14.124999,26.2551 14.481003,25.996799 14.801002,25.6959 15.082001,25.3572 15.317001,24.9861 15.504004,24.5884 15.639998,24.1704 15.722,23.7387 15.75,23.3 15.722,22.8613 15.639999,22.4296 15.504004,22.011599 15.317001,21.6139 15.082001,21.2428 14.801002,20.904099 14.481003,20.6032 14.125,20.3449 13.740005,20.1331 13.332,19.971299 12.906006,19.862 12.47,19.8069" style="fill: black" />
    <polygon slic3r:type="hole" points="55.449996,14.4132 55.25,14.4383 55.055999,14.4883 54.869003,14.5623 54.693007,14.6591 54.53,14.777199 54.384004,14.914699 54.255996,15.069499 54.148011,15.2392 54.061996,15.421 54,15.6121 53.962996,15.809499 53.949996,16.009999 53.962996,16.210501 53.999999,16.407899 54.061996,16.599001 54.148012,16.7808 54.260578,16.9577 54.384003,17.105299 54.53,17.2428 54.693007,17.3609 54.869003,17.457699 55.056,17.5317 55.25,17.5817 55.449996,17.6068 55.650008,17.6068 55.850008,17.5817 56.044008,17.531699 56.231004,17.457699 56.406996,17.360899 56.570007,17.2428 56.716004,17.105299 56.844007,16.9505 56.951996,16.780799 57.038008,16.599 57.100008,16.407899 57.137007,16.210501 57.150008,16.01 57.137008,15.8095 57.100008,15.6121 57.038007,15.420999 56.951995,15.239198 56.844007,15.069499 56.716004,14.9147 56.570007,14.777199 56.406995,14.659099 56.231003,14.562299 56.044007,14.488299 55.850007,14.438299 55.650008,14.4132" style="fill: black" />
  </g>
  <g id="layer1" slic3r:z="4.25e-07">
    <polygon slic3r:type="contour" points="79.100008,46.6 0,46.6 0,0 79.100008,0" style="fill: white" />
    <polygon slic3r:type="hole" points="67.173008,17.3118 66.426011,17.4063 65.695999,17.5937 64.995012,17.870999 64.335008,18.233999 63.725008,18.6769 63.176012,19.1927 62.695999,19.7733 62.292007,20.4095 61.971007,21.0913 61.739,21.8079 61.597,22.548 61.550004,23.3 61.597,24.052 61.739,24.7921 61.971008,25.5087 62.292008,26.1905 62.695999,26.8267 63.176012,27.4073 63.725007,27.923099 64.335007,28.365999 64.995011,28.728999 65.695999,29.0063 66.426012,29.1937 67.173008,29.2882 67.926999,29.2882 68.673992,29.1937 69.404008,29.006299 70.104991,28.729 70.764999,28.366 71.374999,27.9231 71.923991,27.4073 72.404008,26.826699 72.808,26.190499 73.129,25.508699 73.361007,24.7921 73.503008,24.052 73.55,23.3 73.503008,22.548 73.361008,21.807899 73.129,21.091299 72.807999,20.409499 72.404008,19.7733 71.923991,19.192699 71.375,18.6769 70.765,18.234 70.104992,17.871 69.404008,17.5937 68.673991,17.406299 67.926999,17.3118" style="fill: black" />
    <polygon slic3r:type="hole" points="12.030005,19.8069 11.594002,19.862 11.167999,19.971299 10.760002,20.1331 10.374999,20.3449 10.019004,20.6032 9.699004,20.9041 9.417999,21.2428 9.183006,21.613899 8.996001,22.0116 8.860001,22.429599 8.777999,22.8613 8.749999,23.3 8.778,23.7387 8.860001,24.1704 8.996001,24.588399 9.183006,24.9861 9.417998,25.357199 9.699005,25.6959 10.019005,25.9968 10.374999,26.255099 10.760002,26.4669 11.167999,26.6287 11.594001,26.738 12.030005,26.7931 12.470001,26.7931 12.906005,26.738 13.332001,26.628699 13.740005,26.466899 14.125,26.255099 14.481003,25.996799 14.801003,25.695899 15.082001,25.3572 15.317,24.9861 15.504005,24.588399 15.639999,24.170399 15.722,23.738699 15.75,23.299999 15.721999,22.861299 15.639999,22.4296 15.504005,22.0116 15.317,21.613899 15.082001,21.2428 14.801003,20.9041 14.481002,20.603199 14.124999,20.344899 13.740004,20.1331 13.332,19.9713 12.906005,19.862 12.470001,19.8069" style="fill: black" />
    <polygon slic3r:type="hole" points="55.449996,14.4132 55.249999,14.4383 55.055999,14.4883 54.869004,14.562299 54.693007,14.6591 54.53,14.777199 54.384004,14.914699 54.255995,15.0695 54.148012,15.239199 54.061996,15.421 54,15.6121 53.962996,15.8095 53.949996,16.009999 53.962996,16.2105 53.999999,16.407899 54.061996,16.599001 54.148012,16.7808 54.255995,16.950499 54.384004,17.1053 54.53,17.2428 54.693007,17.360899 54.869004,17.4577 55.056,17.5317 55.25,17.5817 55.449996,17.6068 55.650008,17.6068 55.850008,17.581699 56.044008,17.531699 56.231003,17.4577 56.406995,17.3609 56.570007,17.2428 56.716004,17.105299 56.844008,16.9505 56.951996,16.780799 57.038008,16.599 57.100008,16.407899 57.137008,16.210501 57.150008,16.01 57.137008,15.809499 57.100008,15.6121 57.038007,15.420999 56.951995,15.239198 56.844008,15.0695 56.716003,14.914699 56.570008,14.7772 56.406996,14.6591 56.231003,14.5623 56.044008,14.4883 55.850008,14.4383 55.650007,14.4132" style="fill: black" />
  </g>
  <g id="layer2" slic3r:z="6.75e-07">
    <polygon slic3r:type="contour" points="79.100008,46.6 0,46.6 0,0 79.100008,0" style="fill: white" />
    <polygon slic3r:type="hole" points="12.156005,27.803 11.969002,27.8266 11.786003,27.873399 11.610999,27.9428 11.446006,28.0335 11.294005,28.1442 11.157004,28.2732 11.036003,28.4183 10.936005,28.577399 10.855002,28.7478 10.797005,28.926999 10.762001,29.111999 10.75,29.299999 10.762001,29.487999 10.797005,29.673 10.855003,29.8522 10.936005,30.0226 11.036002,30.181697 11.157005,30.3268 11.294006,30.4558 11.446007,30.5665 11.611,30.6572 11.786002,30.726599 11.969001,30.7734 12.156006,30.797 12.344002,30.797 12.531005,30.7734 12.714004,30.7266 12.889,30.657199 13.054001,30.566499 13.206001,30.455799 13.343002,30.326799 13.464005,30.181699 13.564002,30.0226 13.645003,29.8522 13.703003,29.673 13.738007,29.488 13.75,29.3 13.738007,29.112 13.703003,28.927 13.645004,28.747799 13.564002,28.577399 13.464005,28.418299 13.343001,28.273199 13.206,28.144199 13.054,28.033499 12.888999,27.9428 12.714005,27.8734 12.531006,27.8266 12.344001,27.803" style="fill: black" />
    <polygon slic3r:type="hole" points="67.173007,17.3118 66.426012,17.406299 65.695999,17.5937 64.995012,17.870999 64.335007,18.234 63.725007,18.6769 63.176012,19.192699 62.696,19.773299 62.292008,20.409499 61.971008,21.0913 61.739,21.8079 61.597,22.547999 61.550004,23.3 61.597,24.052 61.738999,24.792099 61.971007,25.508699 62.292008,26.1905 62.695999,26.826699 63.176011,27.407299 63.725008,27.9231 64.335008,28.366 64.995012,28.729 65.695999,29.006299 66.426012,29.1937 67.173007,29.2882 67.927,29.2882 68.673991,29.1937 69.404008,29.006299 70.104992,28.729 70.764999,28.366 71.375,27.923099 71.923991,27.4073 72.404008,26.8267 72.807999,26.1905 73.128999,25.5087 73.361008,24.792099 73.503008,24.052 73.55,23.299999 73.503008,22.547999 73.361008,21.8079 73.129,21.0913 72.807999,20.409499 72.404008,19.7733 71.923992,19.1927 71.374999,18.6769 70.764999,18.233999 70.104992,17.871 69.404008,17.5937 68.673991,17.406299 67.927,17.3118" style="fill: black" />
    <polygon slic3r:type="hole" points="12.030005,19.8069 11.594001,19.862 11.167999,19.971299 10.760001,20.1331 10.375,20.344899 10.019005,20.603199 9.699005,20.904099 9.417999,21.242799 9.183006,21.613899 8.996001,22.0116 8.860001,22.4296 8.778,22.861299 8.75,23.3 8.778,23.7387 8.86,24.170399 8.996001,24.588399 9.183006,24.9861 9.417998,25.357199 9.699004,25.695899 10.019005,25.9968 10.375,26.2551 10.760001,26.466899 11.167999,26.6287 11.594002,26.738 12.030006,26.7931 12.470001,26.7931 12.906006,26.737999 13.332,26.6287 13.740005,26.466899 14.124999,26.2551 14.481002,25.9968 14.801003,25.6959 15.082001,25.357199 15.317,24.9861 15.504004,24.5884 15.639999,24.1704 15.721999,23.7387 15.75,23.3 15.721999,22.861299 15.639999,22.4296 15.504005,22.0116 15.317,21.6139 15.082,21.242799 14.801003,20.9041 14.481003,20.6032 14.125,20.344899 13.740005,20.1331 13.332001,19.9713 12.906005,19.862 12.47,19.8069" style="fill: black" />
    <polygon slic3r:type="hole" points="55.449995,14.4132 55.25,14.438299 55.055999,14.4883 54.869004,14.562299 54.693008,14.659099 54.53,14.7772 54.384004,14.914699 54.255996,15.069499 54.148011,15.2392 54.061996,15.421 53.999999,15.6121 53.962996,15.8095 53.949996,16.009999 53.962995,16.2105 54,16.407899 54.061996,16.599001 54.148011,16.780799 54.255995,16.950499 54.384003,17.1053 54.529999,17.242799 54.693007,17.360899 54.869004,17.4577 55.056,17.531699 55.25,17.5817 55.449996,17.6068 55.650007,17.6068 55.850007,17.5817 56.044008,17.531699 56.231004,17.4577 56.406996,17.3609 56.570007,17.2428 56.716003,17.1053 56.844008,16.950499 56.951996,16.780799 57.038008,16.599 57.100007,16.4079 57.137008,16.2105 57.150008,16.01 57.137008,15.809499 57.100007,15.612099 57.038008,15.421 56.951995,15.239198 56.844008,15.0695 56.716004,14.9147 56.570008,14.7772 56.406996,14.6591 56.231004,14.5623 56.044008,14.4883 55.850007,14.4383 55.650008,14.4132" style="fill: black" />
  </g>
  <g id="layer3" slic3r:z="9.25e-07">
    <polygon slic3r:type="contour" points="79.100008,46.6 0,46.6 0,0 79.100008,0" style="fill: white" />
    <polygon slic3r:type="hole" points="12.156005,27.803 11.969001,27.8266 11.786003,27.873399 11.611,27.942799 11.446007,28.033499 11.294006,28.1442 11.157004,28.2732 11.036003,28.418299 10.936004,28.5774 10.855003,28.747799 10.797005,28.926999 10.762001,29.111999 10.75,29.3 10.762001,29.487999 10.797004,29.672999 10.855003,29.8522 10.936005,30.022599 11.036002,30.181697 11.157005,30.3268 11.294006,30.4558 11.446007,30.5665 11.610999,30.657199 11.786002,30.726599 11.969002,30.7734 12.156006,30.797 12.344002,30.797 12.531006,30.773399 12.714004,30.7266 12.889,30.6572 13.054001,30.566499 13.206001,30.4558 13.343001,30.3268 13.464004,30.1817 13.564003,30.022599 13.645003,29.8522 13.703002,29.673 13.738006,29.488 13.75,29.3 13.738007,29.112 13.703003,28.927 13.645004,28.7478 13.564003,28.5774 13.464005,28.4183 13.343001,28.273199 13.206001,28.1442 13.054,28.033499 12.888999,27.942799 12.714005,27.8734 12.531006,27.8266 12.344001,27.803" style="fill: black" />
    <polygon slic3r:type="hole" points="67.173007,17.3118 66.426012,17.4063 65.695999,17.5937 64.995012,17.871 64.335008,18.233999 63.725008,18.6769 63.176011,19.1927 62.695999,19.7733 62.292008,20.409499 61.971007,21.0913 61.738999,21.8079 61.597,22.547999 61.550004,23.299999 61.597,24.052 61.739,24.792099 61.971008,25.5087 62.292008,26.1905 62.696,26.8267 63.176012,27.4073 63.725007,27.923099 64.335007,28.365999 64.995012,28.729 65.695999,29.006299 66.426012,29.1937 67.173007,29.2882 67.927,29.2882 68.673991,29.1937 69.404008,29.006299 70.104992,28.729 70.764999,28.366 71.374999,27.9231 71.923992,27.407299 72.404008,26.826699 72.807999,26.1905 73.129,25.508699 73.361008,24.792099 73.503008,24.052 73.55,23.3 73.503008,22.547999 73.361008,21.8079 73.128999,21.091299 72.807999,20.409499 72.404008,19.773299 71.923991,19.192699 71.375,18.6769 70.764999,18.233999 70.104992,17.871 69.404008,17.5937 68.673991,17.406299 67.927,17.3118" style="fill: black" />
    <polygon slic3r:type="hole" points="12.030006,19.8069 11.594002,19.862 11.167999,19.971299 10.760001,20.1331 10.375,20.3449 10.019005,20.6032 9.699004,20.9041 9.417998,21.2428 9.183006,21.613899 8.996001,22.0116 8.86,22.4296 8.778,22.861299 8.75,23.3 8.778,23.7387 8.860001,24.1704 8.996001,24.588399 9.183006,24.9861 9.417999,25.3572 9.699005,25.6959 10.019005,25.9968 10.375,26.2551 10.760001,26.466899 11.167999,26.6287 11.594001,26.737999 12.030005,26.7931 12.47,26.7931 12.906005,26.738 13.332001,26.6287 13.740005,26.4669 14.125,26.2551 14.481003,25.996799 14.801003,25.695899 15.082,25.3572 15.317,24.9861 15.504005,24.588399 15.639999,24.170399 15.721999,23.7387 15.75,23.3 15.721999,22.861299 15.639999,22.4296 15.504004,22.011599 15.317,21.613899 15.082001,21.2428 14.801003,20.904099 14.481002,20.603199 14.124999,20.3449 13.740005,20.1331 13.332,19.971299 12.906006,19.862 12.470001,19.8069" style="fill: black" />
    <polygon slic3r:type="hole" points="55.449995,14.4132 55.25,14.438299 55.055999,14.4883 54.869003,14.5623 54.693008,14.6591 54.529999,14.7772 54.384003,14.9147 54.255995,15.0695 54.148012,15.239199 54.061996,15.420999 54,15.6121 53.962996,15.809499 53.949996,16.01 53.962996,16.2105 54,16.4079 54.061996,16.599001 54.148011,16.780799 54.255996,16.9505 54.384004,17.1053 54.53,17.2428 54.693008,17.3609 54.869004,17.4577 55.055999,17.531699 55.25,17.5817 55.449995,17.6068 55.650007,17.6068 55.850007,17.5817 56.044008,17.531699 56.231004,17.4577 56.406996,17.360899 56.570008,17.2428 56.716004,17.105299 56.844008,16.950499 56.951996,16.7808 57.038007,16.599001 57.100007,16.4079 57.137008,16.2105 57.150008,16.009999 57.137008,15.8095 57.100008,15.6121 57.038008,15.421 56.951996,15.239199 56.844007,15.069499 56.716003,14.914699 56.570008,14.7772 56.406996,14.6591 56.231003,14.562299 56.044008,14.4883 55.850007,14.438299 55.650007,14.4132" style="fill: black" />
  </g>
  <g id="layer4" slic3r:z="1.175e-06">
    <polygon slic3r:type="contour" points="79.100008,46.6 0,46.6 0,0 79.100008,0" style="fill: white" />
    <polygon slic3r:type="hole" points="12.156006,27.803 11.969002,27.8266 11.786002,27.8734 11.610999,27.9428 11.446007,28.0335 11.294006,28.1442 11.157005,28.273199 11.036003,28.418299 10.936004,28.5774 10.855003,28.747799 10.797004,28.927 10.762001,29.112 10.75,29.299999 10.762001,29.488 10.797005,29.673 10.855003,29.8522 10.936004,30.022599 11.036002,30.181697 11.157005,30.3268 11.294006,30.4558 11.446007,30.5665 11.611,30.6572 11.786003,30.7266 11.969001,30.773399 12.156005,30.797 12.344001,30.797 12.531006,30.7734 12.714005,30.726599 12.888999,30.6572 13.054,30.5665 13.206001,30.4558 13.343001,30.3268 13.464005,30.181699 13.564003,30.022599 13.645004,29.852199 13.703003,29.672999 13.738007,29.487999 13.75,29.299999 13.738006,29.111999 13.703002,28.926999 13.645003,28.747799 13.564003,28.5774 13.464004,28.418299 13.343001,28.273199 13.206001,28.1442 13.054001,28.0335 12.889,27.9428 12.714004,27.873399 12.531006,27.8266 12.344002,27.803" style="fill: black" />
    <polygon slic3r:type="hole" points="67.173008,17.3118 66.426012,17.4063 65.695999,17.5937 64.995011,17.871 64.335007,18.234 63.725007,18.6769 63.176012,19.192699 62.695999,19.7733 62.292008,20.409499 61.971008,21.091299 61.739,21.807899 61.597,22.547999 61.550004,23.3 61.597,24.052 61.739,24.792099 61.971007,25.508699 62.292007,26.190499 62.695999,26.826699 63.176012,27.4073 63.725008,27.9231 64.335008,28.366 64.995012,28.729 65.695999,29.006299 66.426011,29.1937 67.173008,29.2882 67.926999,29.2882 68.673991,29.1937 69.404008,29.006299 70.104992,28.728999 70.765,28.365999 71.375,27.923099 71.923991,27.4073 72.404008,26.826699 72.807999,26.1905 73.129,25.5087 73.361008,24.7921 73.503008,24.051999 73.55,23.299999 73.503008,22.548 73.361007,21.807899 73.129,21.0913 72.808,20.4095 72.404008,19.7733 71.923991,19.192699 71.374999,18.676899 70.764999,18.233999 70.104991,17.870999 69.404008,17.5937 68.673992,17.4063 67.926999,17.3118" style="fill: black" />
    <polygon slic3r:type="hole" points="12.030005,19.8069 11.594001,19.862 11.167999,19.9713 10.760002,20.133099 10.374999,20.3449 10.019005,20.603199 9.699005,20.904099 9.417998,21.2428 9.183006,21.613899 8.996001,22.0116 8.860001,22.429599 8.778,22.861299 8.749999,23.299999 8.777999,23.738699 8.860001,24.1704 8.996001,24.588399 9.183006,24.9861 9.417999,25.3572 9.699004,25.695899 10.019004,25.9968 10.374999,26.255099 10.760002,26.4669 11.167999,26.6287 11.594002,26.738 12.030005,26.7931 12.470001,26.7931 12.906005,26.738 13.332,26.6287 13.740004,26.4669 14.124999,26.2551 14.481002,25.9968 14.801003,25.695899 15.082001,25.357199 15.317,24.9861 15.504005,24.588399 15.639999,24.170399 15.721999,23.7387 15.75,23.3 15.722,22.8613 15.639999,22.4296 15.504005,22.0116 15.317,21.613899 15.082001,21.2428 14.801003,20.9041 14.481003,20.6032 14.125,20.3449 13.740005,20.1331 13.332001,19.9713 12.906005,19.862 12.470001,19.8069" style="fill: black" />
    <polygon slic3r:type="hole" points="55.449996,14.4132 55.25,14.4383 55.056,14.4883 54.869004,14.562299 54.693007,14.6591 54.529999,14.7772 54.384004,14.914699 54.255995,15.0695 54.148011,15.2392 54.061996,15.420999 54,15.6121 53.962995,15.8095 53.949996,16.01 53.962996,16.210501 53.999999,16.407899 54.061996,16.599001 54.148012,16.7808 54.255995,16.950499 54.384003,17.105299 54.53,17.2428 54.693007,17.360899 54.869004,17.4577 55.055999,17.531699 55.249999,17.5817 55.449996,17.6068 55.650007,17.6068 55.850007,17.5817 56.044008,17.5317 56.231003,17.4577 56.406996,17.360899 56.570007,17.2428 56.716004,17.1053 56.844008,16.950499 56.951995,16.7808 57.038007,16.599001 57.100008,16.4079 57.137008,16.210501 57.150008,16.009999 57.137008,15.8095 57.100008,15.6121 57.038008,15.421 56.951996,15.239199 56.844008,15.0695 56.716003,14.914699 56.570007,14.777199 56.406995,14.659099 56.231003,14.562299 56.044008,14.4883 55.850008,14.4383 55.650007,14.4132" style="fill: black" />
  </g>
  <g id="layer5" slic3r:z="1.425e-06">
    <polygon slic3r:type="contour" points="79.100008,46.6 0,46.6 0,0 79.100008,0" style="fill: white" />
    <polygon slic3r:type="hole" points="11.969001,27.8266 11.786002,27.8734 11.611,27.942799 11.446007,28.0335 11.294006,28.144199 11.157005,28.273199 11.036003,28.4183 10.936005,28.577399 10.855003,28.747799 10.797005,28.926999 10.762001,29.112 10.75,29.3 10.762001,29.488 10.797005,29.673 10.855002,29.852199 10.936005,30.0226 11.036002,30.181697 11.157005,30.326799 11.294005,30.455799 11.446006,30.566499 11.610999,30.657199 11.786003,30.7266 11.969002,30.7734 12.156005,30.797 12.344001,30.797 12.531006,30.7734 12.714005,30.7266 12.888999,30.6572 13.054,30.5665 13.206,30.4558 13.343001,30.3268 13.464005,30.1817 13.564002,30.0226 13.645004,29.8522 13.703003,29.672999 13.738007,29.487999 13.75,29.299999 13.738007,29.112 13.703003,28.926999 13.645003,28.747799 13.564002,28.577399 13.464005,28.4183 13.343002,28.2732 13.206001,28.1442 13.054001,28.0335 12.889,27.9428 12.714004,27.873399 12.531005,27.8266 12.373752,27.806753 12.156006,27.803" style="fill: black" />
    <polygon slic3r:type="hole" points="67.173008,17.3118 66.426011,17.4063 65.695999,17.5937 64.995012,17.871 64.335008,18.233999 63.725007,18.6769 63.176011,19.1927 62.696,19.773299 62.292008,20.409499 61.971008,21.091299 61.739,21.8079 61.597,22.547999 61.550004,23.299999 61.597,24.052 61.739,24.7921 61.971008,25.508699 62.292007,26.190499 62.696,26.8267 63.176011,27.407299 63.725007,27.923099 64.335007,28.366 64.995012,28.729 65.696,29.0063 66.426011,29.193699 67.173008,29.2882 67.926999,29.2882 68.673992,29.193699 69.404008,29.006299 70.104992,28.729 70.764999,28.366 71.374999,27.9231 71.923992,27.407299 72.404008,26.826699 72.808,26.190499 73.129,25.508699 73.361007,24.7921 73.503007,24.052 73.55,23.3 73.503008,22.548 73.361008,21.8079 73.128999,21.091299 72.807999,20.409499 72.404007,19.773299 71.923992,19.1927 71.375,18.6769 70.765,18.234 70.104991,17.871 69.404007,17.593699 68.673992,17.4063 67.926999,17.3118" style="fill: black" />
    <polygon slic3r:type="hole" points="12.030006,19.8069 11.594002,19.862 11.167999,19.9713 10.760001,20.1331 10.375,20.344899 10.019005,20.6032 9.699005,20.904099 9.417998,21.2428 9.183006,21.613899 8.996002,22.011599 8.860001,22.429599 8.778,22.8613 8.75,23.3 8.778,23.738699 8.860001,24.170399 8.996001,24.588399 9.183006,24.9861 9.417998,25.357199 9.699005,25.695899 10.019004,25.996799 10.375,26.2551 10.760001,26.466899 11.167998,26.628699 11.594002,26.738 12.030006,26.7931 12.470001,26.7931 12.906006,26.738 13.332,26.6287 13.740004,26.4669 14.125,26.255099 14.481002,25.9968 14.801002,25.6959 15.082,25.3572 15.317001,24.986099 15.504005,24.588399 15.639998,24.1704 15.722,23.738699 15.75,23.299999 15.722,22.8613 15.639998,22.429599 15.504005,22.0116 15.317001,21.6139 15.082001,21.2428 14.801003,20.9041 14.481002,20.603199 14.125,20.3449 13.740004,20.133099 13.332001,19.9713 12.906005,19.862 12.47,19.8069" style="fill: black" />
    <polygon slic3r:type="hole" points="55.449996,14.4132 55.25,14.438299 55.056,14.4883 54.869004,14.562299 54.693007,14.6591 54.53,14.777199 54.384003,14.9147 54.255995,15.0695 54.148011,15.2392 54.061996,15.420999 54,15.6121 53.962995,15.8095 53.949996,16.01 53.962996,16.210501 54,16.407899 54.061996,16.599001 54.148011,16.780799 54.255995,16.950499 54.384003,17.105299 54.529999,17.242799 54.693008,17.3609 54.869003,17.457699 55.055999,17.531699 55.25,17.5817 55.449996,17.6068 55.650008,17.6068 55.850007,17.5817 56.044007,17.5317 56.231003,17.4577 56.406996,17.3609 56.570008,17.242799 56.716003,17.1053 56.844008,16.9505 56.951996,16.7808 57.038007,16.599001 57.100008,16.407899 57.137008,16.2105 57.150008,16.009999 57.137008,15.809499 57.100008,15.6121 57.038007,15.420999 56.951995,15.239198 56.844008,15.0695 56.716004,14.9147 56.570007,14.777199 56.406996,14.6591 56.231004,14.5623 56.044008,14.4883 55.850008,14.4383 55.650008,14.4132" style="fill: black" />
  </g>
</svg>
