<svg width="79.100006mm" height="46.599998mm" viewBox="0 0 79.100006 46.599998"><ns0:g xmlns:ns0="http://www.w3.org/2000/svg" xmlns:slic3r="http://slic3r.org/namespaces/slic3r" id="layer1" slic3r:z="5e-07">
    <ns0:polygon slic3r:type="contour" points="79.100008,46.6 0,46.6 0,0 79.100008,0" style="fill: white"/>
    <ns0:polygon slic3r:type="hole" points="67.173008,17.3118 66.939571,17.341332 66.426012,17.4063 66.197883,17.464862 65.695999,17.5937 65.476939,17.680356 64.995012,17.871 64.78876,17.984437 64.335007,18.234 64.144384,18.372405 63.725007,18.6769 63.553448,18.838087 63.176011,19.1927 62.846003,19.591862 62.696,19.7733 62.418256,20.210687 62.292008,20.409499 62.084806,20.849593 61.971008,21.091299 61.811503,21.583962 61.739,21.807899 61.641376,22.316717 61.596999,22.547999 61.564692,23.064999 61.550004,23.3 61.582311,23.816999 61.597,24.052 61.694623,24.560817 61.738999,24.792099 61.898504,25.284762 61.971007,25.508699 62.191696,25.977438 62.292007,26.190499 62.569751,26.627887 62.695999,26.826699 63.026007,27.225861 63.176012,27.4073 63.347571,27.568487 63.725008,27.9231 63.994849,28.119023 64.335008,28.366 64.615207,28.520108 64.995012,28.729 65.214071,28.815655 65.695999,29.006299 65.924127,29.064861 66.426012,29.1937 66.659448,29.223232 67.173008,29.2882 67.927,29.2882 68.160431,29.258668 68.673992,29.1937 68.90212,29.135137 69.404008,29.006299 69.623063,28.919644 70.104992,28.729 70.3371,28.601343 70.765,28.365999 70.955623,28.227594 71.375,27.923099 71.546559,27.761912 71.923992,27.407299 72.253999,27.008138 72.404008,26.826699 72.681751,26.389312 72.807999,26.1905 73.015201,25.750406 73.128999,25.5087 73.288504,25.016037 73.361007,24.7921 73.458631,24.283282 73.503008,24.052 73.535312,23.534999 73.55,23.3 73.517695,22.782999 73.503008,22.547999 73.405383,22.039181 73.361008,21.8079 73.201503,21.315237 73.129,21.0913 72.908311,20.622561 72.808,20.4095 72.530255,19.972111 72.404008,19.7733 72.074,19.374138 71.923991,19.192699 71.717181,18.998392 71.374999,18.676899 71.105158,18.480976 70.764999,18.233999 70.558744,18.120562 70.104991,17.870999 69.885935,17.784343 69.404008,17.5937 69.175879,17.535137 68.673991,17.4063 68.44056,17.376768 67.926999,17.3118" style="fill: black"/>
    <ns0:polygon slic3r:type="hole" points="12.030005,19.8069 11.850111,19.829633 11.594001,19.862 11.460876,19.896155 11.167998,19.9713 11.0405,20.021861 10.760002,20.1331 10.639689,20.199287 10.374999,20.3449 10.263751,20.425618 10.019005,20.6032 9.919005,20.697231 9.699004,20.9041 9.437978,21.218717 9.417998,21.2428 9.256441,21.497931 9.183005,21.6139 9.020993,21.958451 8.996001,22.0116 8.902501,22.298975 8.86,22.4296 8.803624,22.726394 8.778,22.861299 8.758749,23.162906 8.75,23.3 8.769249,23.601605 8.778,23.7387 8.834375,24.035493 8.86,24.170399 8.953501,24.457775 8.996002,24.5884 9.124566,24.861817 9.183006,24.9861 9.344563,25.241231 9.417999,25.3572 9.61119,25.590055 9.699005,25.6959 9.799004,25.789931 10.019005,25.9968 10.130252,26.077517 10.374999,26.255099 10.495313,26.321288 10.760002,26.4669 10.8875,26.517461 11.167999,26.6287 11.301124,26.662855 11.594002,26.738 11.730252,26.755217 12.030006,26.7931 12.470001,26.7931 12.649896,26.770366 12.906006,26.737999 13.039128,26.703844 13.332,26.6287 13.459502,26.578137 13.740004,26.4669 13.860316,26.400711 14.125,26.255099 14.23625,26.174382 14.481003,25.996799 14.581002,25.902768 14.801003,25.695899 14.994189,25.463043 15.082,25.3572 15.243564,25.102067 15.317001,24.986099 15.479013,24.641548 15.504005,24.588399 15.5975,24.301024 15.639999,24.1704 15.696375,23.873605 15.722,23.7387 15.74125,23.437093 15.75,23.299999 15.730749,22.998393 15.722,22.861299 15.665623,22.564505 15.639999,22.4296 15.56776,22.207562 15.504005,22.0116 15.37544,21.738182 15.317,21.613899 15.155437,21.358767 15.082,21.242799 14.888815,21.009944 14.801003,20.9041 14.701002,20.810067 14.481002,20.603199 14.369752,20.522482 14.125,20.3449 14.004688,20.278711 13.740005,20.1331 13.612503,20.082537 13.332001,19.9713 13.198878,19.937144 12.906005,19.861999 12.769754,19.844782 12.47,19.8069" style="fill: black"/>
    <ns0:polygon slic3r:type="hole" points="55.449996,14.4132 55.387496,14.421043 55.25,14.4383 55.189375,14.453925 55.056,14.488299 54.997563,14.511425 54.869003,14.5623 54.814004,14.592549 54.693008,14.6591 54.642068,14.696005 54.529999,14.7772 54.484376,14.820168 54.384004,14.9147 54.296,15.021124 54.255996,15.069499 54.181755,15.186169 54.148012,15.2392 54.088876,15.364187 54.061996,15.421 54.019372,15.55238 54,15.612099 53.97456,15.747811 53.962996,15.809499 53.954059,15.947344 53.949996,16.009999 53.958932,16.147844 53.962996,16.2105 53.988435,16.346212 54,16.407899 54.042624,16.539282 54.061996,16.599001 54.134644,16.752546 54.148012,16.7808 54.222252,16.897468 54.255995,16.950499 54.344,17.056924 54.384004,17.1053 54.429628,17.148268 54.529999,17.242799 54.58094,17.279706 54.693008,17.3609 54.748008,17.39115 54.869004,17.4577 54.92744,17.480824 55.055999,17.531699 55.116623,17.547323 55.249999,17.5817 55.312499,17.589543 55.449996,17.6068 55.650008,17.6068 55.712508,17.598955 55.850007,17.5817 55.910632,17.566075 56.044008,17.5317 56.102443,17.508576 56.231004,17.457699 56.286,17.427449 56.406996,17.3609 56.457935,17.323994 56.570008,17.242799 56.615631,17.199832 56.716003,17.1053 56.804008,16.998875 56.844008,16.950499 56.918247,16.833832 56.951996,16.780799 57.011127,16.655813 57.038007,16.599001 57.080632,16.467618 57.100008,16.407899 57.125443,16.272188 57.137008,16.210501 57.145944,16.072656 57.150008,16.01 57.141071,15.872155 57.137008,15.809499 57.111572,15.673788 57.100007,15.612099 57.057384,15.480719 57.038008,15.421 56.978875,15.296011 56.951995,15.239198 56.877756,15.122531 56.844007,15.069499 56.756004,14.963075 56.716004,14.9147 56.670379,14.87173 56.570008,14.7772 56.519068,14.740294 56.406995,14.659099 56.352,14.62885 56.231004,14.5623 56.172567,14.539174 56.044008,14.4883 55.983383,14.472674 55.850008,14.4383 55.787507,14.430455 55.650008,14.4132" style="fill: black"/>
  </ns0:g>
  </svg>