<svg width="79.100006mm" height="46.599998mm" viewBox="0 0 79.100006 46.599998"><ns0:g xmlns:ns0="http://www.w3.org/2000/svg" xmlns:slic3r="http://slic3r.org/namespaces/slic3r" id="layer2" slic3r:z="8e-07">
    <ns0:polygon slic3r:type="contour" points="79.100008,46.6 0,46.6 0,0 79.100008,0" style="fill: white"/>
    <ns0:polygon slic3r:type="hole" points="12.156006,27.803 12.105004,27.809436 11.969002,27.826599 11.919092,27.839364 11.786002,27.8734 11.738275,27.892327 11.611,27.942799 11.566002,27.967535 11.446006,28.0335 11.404552,28.063689 11.294005,28.1442 11.256642,28.179381 11.157005,28.273199 11.069003,28.378728 11.036002,28.4183 10.963277,28.534009 10.936005,28.577399 10.877093,28.701328 10.855002,28.7478 10.812823,28.878127 10.797005,28.926999 10.771547,29.061546 10.762,29.112 10.753273,29.248727 10.75,29.3 10.758727,29.436727 10.762001,29.487999 10.787458,29.622546 10.797005,29.673 10.839184,29.803327 10.855003,29.8522 10.913913,29.976127 10.936005,30.0226 11.00873,30.138307 11.036002,30.181697 11.124003,30.287225 11.157005,30.3268 11.194368,30.361981 11.294006,30.455799 11.335461,30.48599 11.446007,30.5665 11.491004,30.591235 11.611,30.6572 11.658727,30.676127 11.786002,30.726599 11.835912,30.739364 11.969002,30.7734 12.020003,30.779836 12.156006,30.797 12.344001,30.797 12.395003,30.790563 12.531005,30.7734 12.580915,30.760635 12.714004,30.7266 12.76173,30.707672 12.889,30.6572 12.934,30.632463 13.054,30.5665 13.095455,30.53631 13.206001,30.455799 13.243364,30.420618 13.343001,30.3268 13.431003,30.221272 13.464005,30.181699 13.53673,30.06599 13.564002,30.0226 13.622912,29.898672 13.645004,29.852199 13.687184,29.721872 13.703002,29.673 13.72846,29.538453 13.738006,29.488 13.746728,29.351272 13.75,29.3 13.744663,29.216348 13.744664,29.216348 13.738007,29.112 13.712549,28.977453 13.703002,28.926999 13.660821,28.796671 13.645004,28.7478 13.586093,28.623871 13.564003,28.577399 13.491276,28.461689 13.464005,28.4183 13.376002,28.312771 13.343002,28.273199 13.305637,28.238017 13.206001,28.1442 13.164546,28.11401 13.054,28.033499 13.009001,28.008764 12.889,27.9428 12.841273,27.923871 12.714005,27.8734 12.664095,27.860635 12.531006,27.8266 12.480004,27.820163 12.344002,27.803" style="fill: black"/>
    <ns0:polygon slic3r:type="hole" points="67.173008,17.3118 66.799508,17.359049 66.426011,17.4063 66.061008,17.499999 65.695999,17.5937 65.345508,17.732349 64.995012,17.871 64.665007,18.0525 64.335008,18.233999 63.725008,18.676899 63.450512,18.934799 63.176012,19.192699 62.936007,19.483 62.696,19.773299 62.292008,20.409499 61.971007,21.0913 61.738999,21.8079 61.597,22.547999 61.573504,22.923999 61.550004,23.3 61.573503,23.675999 61.597,24.052 61.738999,24.7921 61.971007,25.508699 62.292008,26.1905 62.696,26.8267 62.936007,27.116999 63.176012,27.4073 63.450511,27.665199 63.725008,27.9231 64.335008,28.366 64.665007,28.547499 64.995012,28.729 65.345503,28.867649 65.696,29.0063 66.061008,29.1 66.426011,29.1937 66.799511,29.240949 67.173008,29.2882 67.927,29.2882 68.673992,29.1937 69.404008,29.0063 69.754503,28.86765 70.104992,28.728999 70.434991,28.5475 70.765,28.365999 71.374999,27.9231 71.923992,27.407299 72.404008,26.8267 72.606,26.508599 72.807999,26.1905 72.968496,25.849599 73.129,25.5087 73.245008,25.150399 73.361008,24.792099 73.503008,24.052 73.55,23.3 73.503008,22.547999 73.361008,21.8079 73.245008,21.4496 73.129,21.0913 72.968496,20.7504 72.807999,20.409499 72.606,20.0914 72.404008,19.773299 71.923992,19.1927 71.374999,18.676899 70.765,18.234 70.434991,18.052499 70.104992,17.871 69.754496,17.73235 69.404007,17.593699 68.673992,17.4063 67.927,17.3118" style="fill: black"/>
    <ns0:polygon slic3r:type="hole" points="12.030005,19.8069 11.594002,19.861999 11.381,19.916649 11.167999,19.9713 10.963999,20.0522 10.760001,20.1331 10.374999,20.3449 10.176406,20.488993 10.019004,20.6032 9.699004,20.9041 9.417998,21.2428 9.300503,21.428349 9.183005,21.6139 8.996002,22.011599 8.928002,22.220599 8.860001,22.429599 8.818999,22.64545 8.778,22.8613 8.75,23.3 8.778,23.7387 8.818999,23.954549 8.860001,24.1704 8.928001,24.379399 8.996002,24.5884 9.183005,24.9861 9.315195,25.194853 9.417999,25.3572 9.699004,25.6959 10.019004,25.996799 10.176406,26.111006 10.374999,26.2551 10.760001,26.466899 10.963999,26.547799 11.167999,26.6287 11.381,26.68335 11.594002,26.738 12.030005,26.7931 12.470001,26.7931 12.688004,26.765549 12.906005,26.738 13.119004,26.683349 13.332001,26.6287 13.740004,26.4669 13.932501,26.361 14.125,26.255099 14.303,26.12595 14.481003,25.9968 14.801002,25.6959 15.082001,25.357199 15.317001,24.986099 15.504005,24.5884 15.639998,24.1704 15.681,23.954549 15.722,23.7387 15.75,23.3 15.722,22.8613 15.680999,22.645449 15.639998,22.429599 15.504005,22.011599 15.317001,21.6139 15.082001,21.2428 14.801002,20.904099 14.481003,20.6032 14.303001,20.474049 14.125,20.3449 13.932501,20.238999 13.740004,20.133099 13.332001,19.9713 13.119002,19.916649 12.906006,19.862 12.688003,19.834449 12.470001,19.8069" style="fill: black"/>
    <ns0:polygon slic3r:type="hole" points="55.449996,14.4132 55.349999,14.42575 55.249999,14.4383 55.056,14.488299 54.962503,14.5253 54.869004,14.562299 54.781007,14.6107 54.693008,14.659099 54.529999,14.7772 54.457,14.845949 54.384003,14.9147 54.255995,15.0695 54.148012,15.239199 54.061995,15.421 54.031,15.516549 53.999999,15.6121 53.981496,15.710799 53.962995,15.8095 53.949995,16.01 53.956495,16.110249 53.962995,16.2105 53.981496,16.3092 53.999999,16.407899 54.031,16.50345 54.061995,16.599 54.105003,16.689899 54.148012,16.7808 54.255995,16.950499 54.384003,17.105299 54.457,17.17405 54.529999,17.242799 54.693008,17.3609 54.781007,17.409299 54.869004,17.4577 54.962503,17.494699 55.056,17.5317 55.249999,17.5817 55.349999,17.594249 55.449996,17.6068 55.650008,17.6068 55.850008,17.5817 56.044007,17.5317 56.137504,17.494699 56.231003,17.4577 56.406995,17.3609 56.488504,17.301849 56.570008,17.242799 56.643007,17.17405 56.716004,17.105299 56.780008,17.027899 56.844007,16.9505 56.897999,16.86565 56.951996,16.7808 56.995,16.689899 57.038008,16.599001 57.057814,16.537951 57.100007,16.4079 57.118507,16.3092 57.137008,16.2105 57.143507,16.11025 57.150008,16.01 57.137008,15.8095 57.100007,15.612099 57.038007,15.420999 56.995,15.3301 56.951996,15.239199 56.897999,15.154349 56.844007,15.069499 56.780008,14.9921 56.716004,14.9147 56.643007,14.845949 56.570008,14.7772 56.488504,14.71815 56.406995,14.659099 56.231003,14.562299 56.137504,14.5253 56.044007,14.488299 55.850008,14.4383 55.650008,14.4132" style="fill: black"/>
  </ns0:g>
  </svg>