<svg width="79.100006mm" height="46.599998mm" viewBox="0 0 79.100006 46.599998"><ns0:g xmlns:ns0="http://www.w3.org/2000/svg" xmlns:slic3r="http://slic3r.org/namespaces/slic3r" id="layer0" slic3r:z="1.75e-07">
    <ns0:polygon slic3r:type="contour" points="79.100008,46.6 0,46.6 0,0 79.100008,0" style="fill: white"/>
    <ns0:polygon slic3r:type="hole" points="67.173008,17.3118 67.091304,17.322135 66.426011,17.4063 66.408475,17.410801 65.696,17.593699 65.619327,17.62403 64.995012,17.870999 64.922823,17.910704 64.335007,18.234 64.268288,18.282441 63.725007,18.6769 63.664959,18.733316 63.176011,19.1927 62.748499,19.709796 62.696,19.773299 62.336196,20.339915 62.292007,20.4095 62.006116,21.016727 61.971008,21.0913 61.764376,21.729521 61.739,21.807899 61.612531,22.467052 61.597,22.547999 61.555143,23.21775 61.550004,23.3 61.591859,23.969749 61.597,24.052 61.723468,24.711152 61.739,24.792099 61.945631,25.430321 61.971008,25.5087 62.256899,26.115927 62.292008,26.1905 62.651811,26.757115 62.696,26.8267 63.123512,27.343796 63.176011,27.407299 63.23606,27.463716 63.725007,27.9231 63.791727,27.971541 64.335008,28.366 64.407196,28.405704 64.995012,28.729 65.071683,28.759329 65.695999,29.0063 65.775844,29.026796 66.426011,29.193699 66.507715,29.204035 67.173008,29.2882 67.926999,29.2882 68.008704,29.277863 68.673992,29.1937 68.75384,29.173203 69.404007,29.0063 69.48068,28.975969 70.104991,28.729 70.177183,28.689296 70.765,28.366 70.831719,28.317558 71.375,27.923099 71.435048,27.866683 71.923992,27.407299 72.351504,26.890203 72.404007,26.8267 72.763816,26.260083 72.807999,26.1905 73.093887,25.583272 73.128999,25.5087 73.335631,24.870478 73.361008,24.792099 73.487479,24.132948 73.503008,24.052 73.544863,23.38225 73.55,23.299999 73.508144,22.63025 73.503007,22.547999 73.376536,21.888848 73.361007,21.807899 73.154375,21.169677 73.129,21.0913 72.843111,20.484071 72.808,20.4095 72.448191,19.842883 72.404008,19.7733 71.976495,19.256203 71.923992,19.1927 71.863943,19.136283 71.374999,18.676899 71.30828,18.628458 70.764999,18.233999 70.692808,18.194296 70.104992,17.871 70.028319,17.840669 69.404008,17.5937 69.324159,17.573203 68.673992,17.4063 68.592287,17.395963 67.926999,17.3118" style="fill: black"/>
    <ns0:polygon slic3r:type="hole" points="12.030006,19.8069 11.982317,19.812926 11.594002,19.862 11.547408,19.873953 11.167998,19.9713 11.123374,19.988995 10.760001,20.1331 10.717892,20.156265 10.375,20.344899 10.336063,20.373151 10.019004,20.6032 9.984004,20.63611 9.699005,20.9041 9.448734,21.205753 9.417998,21.2428 9.208707,21.57331 9.183006,21.613899 9.016456,21.968101 8.996001,22.0116 8.874876,22.383881 8.860001,22.4296 8.786968,22.814082 8.778,22.8613 8.753061,23.252018 8.75,23.299999 8.774938,23.690718 8.778,23.738699 8.851031,24.123181 8.860001,24.1704 8.981126,24.542681 8.996002,24.5884 9.162551,24.942601 9.183006,24.9861 9.392297,25.31661 9.417998,25.357199 9.66827,25.658854 9.699005,25.6959 9.734005,25.72881 10.019005,25.9968 10.057941,26.025051 10.375,26.2551 10.417109,26.278265 10.760001,26.4669 10.804626,26.484595 11.167999,26.628699 11.214592,26.640653 11.594002,26.738 11.64169,26.744026 12.030006,26.7931 12.47,26.7931 12.517689,26.787073 12.906005,26.738 12.952598,26.726046 13.332001,26.628699 13.376625,26.611004 13.740004,26.4669 13.782113,26.443734 14.125,26.255099 14.163938,26.226847 14.481002,25.9968 14.516003,25.963889 14.801003,25.6959 15.051266,25.394246 15.082001,25.357199 15.291297,25.02669 15.317001,24.986099 15.48355,24.631898 15.504005,24.588399 15.625125,24.216117 15.639998,24.1704 15.713031,23.785917 15.722,23.738699 15.746938,23.347981 15.75,23.3 15.725061,22.909281 15.722,22.8613 15.648967,22.476817 15.639998,22.429599 15.518878,22.057317 15.504005,22.0116 15.337455,21.657398 15.317001,21.6139 15.107704,21.28339 15.082,21.242799 14.831737,20.941146 14.801002,20.904099 14.766002,20.871189 14.481002,20.603199 14.442064,20.574947 14.125,20.3449 14.08289,20.321733 13.740004,20.133099 13.695379,20.115403 13.332,19.9713 13.285408,19.959346 12.906006,19.862 12.858317,19.855973 12.470001,19.8069" style="fill: black"/>
    <ns0:polygon slic3r:type="hole" points="55.449995,14.4132 55.42812,14.415944 55.249999,14.4383 55.22878,14.443768 55.055999,14.4883 55.035548,14.496393 54.869003,14.5623 54.849755,14.572888 54.693007,14.6591 54.67518,14.672016 54.53,14.777199 54.514032,14.792238 54.384004,14.914699 54.269995,15.052569 54.255996,15.069499 54.159824,15.220638 54.148012,15.239199 54.071403,15.401116 54.061996,15.421 54.00678,15.591197 54,15.6121 53.967044,15.787908 53.962996,15.809499 53.951415,15.98807 53.949996,16.009999 53.961576,16.188571 53.962996,16.2105 53.995952,16.386309 54,16.407899 54.055216,16.578099 54.061996,16.599001 54.138603,16.760915 54.148012,16.7808 54.244183,16.931939 54.255996,16.9505 54.370003,17.088367 54.384004,17.1053 54.399971,17.120339 54.529999,17.242799 54.547828,17.255718 54.693008,17.3609 54.712255,17.371487 54.869004,17.4577 54.889455,17.465793 55.056,17.5317 55.077219,17.537167 55.25,17.5817 55.271876,17.584446 55.449995,17.6068 55.650007,17.6068 55.671884,17.604053 55.850007,17.5817 55.871227,17.576232 56.044008,17.531699 56.064459,17.523606 56.231004,17.457699 56.250252,17.447111 56.406995,17.3609 56.424824,17.347981 56.570008,17.2428 56.585975,17.22776 56.716003,17.1053 56.830007,16.967432 56.844008,16.9505 56.940183,16.79936 56.951995,16.7808 57.0286,16.618884 57.038007,16.599001 57.093227,16.428802 57.100008,16.4079 57.13296,16.232091 57.137007,16.210501 57.148588,16.031929 57.150008,16.01 57.138427,15.831429 57.137008,15.8095 57.104056,15.633691 57.100008,15.6121 57.044787,15.441901 57.038007,15.420999 56.961403,15.259082 56.951996,15.239199 56.855819,15.08806 56.844008,15.0695 56.730003,14.93163 56.716004,14.9147 56.700035,14.89966 56.570007,14.777199 56.55218,14.764283 56.406996,14.6591 56.387747,14.648511 56.231003,14.562299 56.210552,14.554206 56.044007,14.4883 56.022787,14.48283 55.850007,14.438299 55.828132,14.435555 55.650007,14.4132" style="fill: black"/>
  </ns0:g>
  </svg>