<svg width="78.899993mm" height="46.400001mm" viewBox="0 0 78.899993 46.400001"><ns0:g xmlns:ns0="http://www.w3.org/2000/svg" xmlns:slic3r="http://slic3r.org/namespaces/slic3r" id="layer2" slic3r:z="8e-07">
    <ns0:polygon slic3r:type="contour" points="78.899992,46.4 0,46.4 0,0 78.899992,0" style="fill: white"/>
    <ns0:polygon slic3r:type="hole" points="17.045999,16.482448 7.5,26.028395 20.934998,39.463499 30.480996,29.917548 40.026991,20.371598 33.309495,13.654048 26.592002,6.9365" style="fill: black"/>
    <ns0:polygon slic3r:type="hole" points="9.474997,35.799004 9.378998,35.814251 9.282996,35.8295 9.096001,35.883796 9.007,35.922447 8.917998,35.961096 8.834,36.010647 8.749999,36.060204 8.673,36.119847 8.596,36.179496 8.527499,36.248296 8.459,36.317099 8.398997,36.394 8.338997,36.4709 8.289497,36.554695 8.239998,36.638495 8.2015,36.727799 8.163001,36.8171 8.136001,36.910547 8.109,37.003996 8.093502,37.100147 8.078003,37.196296 8.075001,37.293547 8.071998,37.390799 8.080996,37.487703 8.089995,37.584603 8.111499,37.679599 8.133002,37.774595 8.166,37.866152 8.198996,37.957703 8.242999,38.044403 8.287001,38.131103 8.342003,38.2116 8.397003,38.2921 8.461001,38.365103 8.525002,38.438104 8.670997,38.566903 8.751499,38.621599 8.832001,38.6763 9.005996,38.764699 9.189002,38.830595 9.284,38.851847 9.378998,38.8731 9.572997,38.891404 9.766997,38.8853 9.959,38.854795 10.146003,38.8005 10.235501,38.761847 10.324996,38.723196 10.408996,38.673647 10.492995,38.6241 10.5695,38.564447 10.646003,38.5048 10.715,38.435999 10.783997,38.367203 10.843497,38.290304 10.903,38.213399 10.952499,38.1296 11.001998,38.0458 11.041,37.956503 11.080002,37.867203 11.12542,37.710001 11.134003,37.680295 11.164001,37.488 11.1675,37.390703 11.170998,37.293403 11.152,37.0997 11.130999,37.004699 11.11,36.909699 11.077,36.818152 11.043998,36.726599 10.9995,36.639848 10.955002,36.5531 10.900502,36.4726 10.846001,36.392096 10.781501,36.319095 10.717003,36.2461 10.644,36.181751 10.570998,36.117399 10.490502,36.062704 10.410004,36.008004 10.323502,35.9638 10.236999,35.919599 10.145499,35.886647 10.054,35.853699 9.958999,35.832451 9.863998,35.811204 9.669998,35.7929" style="fill: black"/>
    <ns0:polygon slic3r:type="hole" points="47.699996,8.199997 47.699996,38.199996 68.899992,38.199996 68.899992,8.199997" style="fill: black"/>
    <ns0:polygon slic3r:type="hole" points="37.759996,7.514702 37.663495,7.529949 37.566999,7.545196 37.438081,7.582834 37.380995,7.599502 37.291495,7.638153 37.201996,7.676802 37.117996,7.726352 37.033995,7.775902 36.880996,7.895201 36.811996,7.964 36.742995,8.032799 36.683496,8.109698 36.623991,8.186599 36.574492,8.2704 36.524992,8.354202 36.485999,8.443501 36.447007,8.532799 36.420007,8.626252 36.393004,8.719703 36.377503,8.815853 36.362,8.912002 36.358999,9.0093 36.356003,9.106597 36.365504,9.20345 36.375,9.3003 36.417008,9.490303 36.482999,9.6734 36.571,9.8469 36.625999,9.927397 36.680999,10.007895 36.745496,10.080898 36.809995,10.153899 36.882992,10.21825 36.955992,10.2826 37.036496,10.337299 37.117003,10.391997 37.203496,10.436199 37.289992,10.4804 37.448305,10.537408 37.473008,10.546303 37.568,10.567551 37.662996,10.588799 37.856995,10.607101 37.953995,10.604049 38.050996,10.600998 38.1475,10.585749 38.244003,10.570503 38.337504,10.543349 38.431,10.516197 38.519995,10.47755 38.608992,10.438903 38.776992,10.339798 38.853996,10.280147 38.930999,10.220497 39.067992,10.0829 39.127999,10.006 39.188003,9.9291 39.237503,9.845348 39.287004,9.761596 39.325504,9.672248 39.363999,9.582901 39.390999,9.489452 39.418,9.396003 39.4335,9.299849 39.449004,9.203697 39.452,9.106448 39.455,9.009201 39.445999,8.912299 39.436995,8.815398 39.393996,8.625397 39.328004,8.442299 39.284003,8.355597 39.240004,8.268898 39.130003,8.107901 39.066,8.034901 39.002,7.961899 38.928999,7.897498 38.856003,7.833098 38.775503,7.778399 38.695008,7.723701 38.608,7.6795 38.520996,7.635299 38.337995,7.569396 38.147995,7.5269 38.050996,7.51775 37.953996,7.508598" style="fill: black"/>
  </ns0:g>
  </svg>